<svg width="10" height="8" viewBox="0 0 10 8" fill="currentColor" xmlns="http://www.w3.org/2000/svg">
<path d="M4.54876 6.13106L6.06543 4.61439L7.58209 6.13106L8.19682 5.51633L6.68016 3.99966L8.19682 2.48299L7.58209 1.86826L6.06543 3.38493L4.54876 1.86826L3.93404 2.48299L5.45071 3.99966L3.93404 5.51633L4.54876 6.13106ZM0.0750732 3.99966L2.38821 0.726285C2.50263 0.563253 2.64865 0.436115 2.82626 0.344872C3.00388 0.253629 3.19365 0.208008 3.39558 0.208008H8.86992C9.16082 0.208008 9.4093 0.311029 9.61535 0.517072C9.82138 0.723106 9.92439 0.971581 9.92439 1.2625V6.73682C9.92439 7.02774 9.82138 7.27622 9.61535 7.48225C9.4093 7.68829 9.16082 7.79131 8.86992 7.79131H3.39558C3.18992 7.79131 3.00014 7.74382 2.82626 7.64883C2.65239 7.55386 2.50637 7.42485 2.38821 7.26182L0.0750732 3.99966Z" fill="currentColor"/>
</svg>
