<svg width="17" height="17" viewBox="0 0 17 17" fill="none" xmlns="http://www.w3.org/2000/svg">
<mask id="mask0_2410_3025" style="mask-type:alpha" maskUnits="userSpaceOnUse" x="0" y="0" width="17" height="17">
<rect x="0.691895" y="0.78418" width="16" height="16" fill="#D9D9D9"/>
</mask>
<g mask="url(#mask0_2410_3025)">
<path d="M8.69308 15.1178C7.81712 15.1178 6.99376 14.9516 6.22301 14.6191C5.45224 14.2867 4.78179 13.8355 4.21164 13.2656C3.64149 12.6957 3.19011 12.0256 2.85753 11.2552C2.52494 10.4847 2.35864 9.66156 2.35864 8.78561C2.35864 7.90965 2.52486 7.08629 2.85731 6.31554C3.18975 5.54477 3.64092 4.87432 4.21081 4.30417C4.78071 3.73402 5.45087 3.28264 6.22129 2.95006C6.9917 2.61747 7.81489 2.45117 8.69084 2.45117C9.5668 2.45117 10.3902 2.61739 11.1609 2.94984C11.9317 3.28228 12.6021 3.73345 13.1723 4.30334C13.7424 4.87324 14.1938 5.5434 14.5264 6.31382C14.859 7.08423 15.0253 7.90742 15.0253 8.78337C15.0253 9.65933 14.8591 10.4827 14.5266 11.2534C14.1942 12.0242 13.743 12.6947 13.1731 13.2648C12.6032 13.835 11.933 14.2863 11.1626 14.6189C10.3922 14.9515 9.56903 15.1178 8.69308 15.1178ZM8.69196 14.1178C10.1808 14.1178 11.442 13.6012 12.4753 12.5678C13.5086 11.5345 14.0253 10.2734 14.0253 8.78449C14.0253 8.15901 13.9185 7.5567 13.7048 6.97756C13.4911 6.39841 13.186 5.86909 12.7894 5.38961L5.29708 12.8819C5.77656 13.2828 6.30588 13.589 6.88503 13.8005C7.46417 14.0121 8.06648 14.1178 8.69196 14.1178ZM4.59453 12.1794L12.0868 4.68706C11.6116 4.28193 11.0838 3.97467 10.5032 3.76526C9.92269 3.55586 9.31894 3.45116 8.69196 3.45116C7.20307 3.45116 5.94196 3.96782 4.90863 5.00116C3.87529 6.03449 3.35863 7.2956 3.35863 8.78449C3.35863 9.40997 3.4644 10.0123 3.67594 10.5914C3.88748 11.1706 4.19367 11.6999 4.59453 12.1794Z" fill="#C74C4C"/>
</g>
</svg>
