<svg width="30" height="30" viewBox="0 0 30 30" fill="none" xmlns="http://www.w3.org/2000/svg">
<path d="M11.7188 13.6522C11.8617 13.5683 11.9802 13.4484 12.0624 13.3045C12.1447 13.1606 12.1878 12.9976 12.1875 12.8319V4.39438C12.1888 4.24336 12.1536 4.09426 12.0849 3.95976C12.0162 3.82527 11.916 3.70936 11.7929 3.62191C11.6698 3.53446 11.5274 3.47804 11.3777 3.45747C11.2281 3.4369 11.0758 3.45277 10.9336 3.50375C8.56011 4.34925 6.50591 5.90759 5.05216 7.96549C3.59842 10.0234 2.81618 12.4803 2.8125 14.9998C2.81377 15.7464 2.88043 16.4915 3.01172 17.2264C3.03989 17.3732 3.10233 17.5113 3.19397 17.6294C3.28561 17.7475 3.40385 17.8423 3.53906 17.9061C3.66384 17.9649 3.79959 17.9969 3.9375 17.9998C4.10237 17.9988 4.26405 17.9544 4.40625 17.8709L11.7188 13.6522ZM10.3125 5.81234V12.2928L4.69922 15.5389C4.6875 15.3514 4.6875 15.1756 4.6875 14.9998C4.6911 13.0996 5.2179 11.237 6.21013 9.61638C7.20235 7.99574 8.62169 6.67962 10.3125 5.81234Z" fill="currentColor"/>
<path d="M25.582 8.95312C25.5699 8.94005 25.5618 8.92379 25.5586 8.90625L25.5117 8.84766C24.4392 7.01133 22.9045 5.48792 21.0602 4.42908C19.216 3.37024 17.1266 2.81288 15 2.8125C14.7514 2.8125 14.5129 2.91127 14.3371 3.08709C14.1613 3.2629 14.0625 3.50136 14.0625 3.75V14.4609L4.79297 19.8164C4.68493 19.8761 4.58992 19.9568 4.51352 20.0538C4.43713 20.1508 4.38091 20.262 4.34815 20.381C4.31539 20.5 4.30677 20.6244 4.32278 20.7468C4.3388 20.8692 4.37913 20.9872 4.44141 21.0938V21.1172L4.47656 21.1758C5.82838 23.4899 7.90525 25.2938 10.3857 26.3085C12.8662 27.3232 15.612 27.492 18.198 26.7887C20.7841 26.0855 23.0663 24.5495 24.6914 22.4184C26.3164 20.2873 27.1937 17.68 27.1875 15C27.1903 12.8787 26.6368 10.7937 25.582 8.95312Z" fill="currentColor"/>
</svg>
