<svg width="38" height="28" viewBox="0 0 38 28" fill="currentColor" xmlns="http://www.w3.org/2000/svg">
<path d="M27.75 8V7.125C27.75 3.20312 21.8438 0.25 14 0.25C6.15625 0.25 0.25 3.20312 0.25 7.125V13.375C0.25 16.6406 4.34375 19.2344 10.25 20.0156V20.875C10.25 24.7969 16.1562 27.75 24 27.75C31.8438 27.75 37.75 24.7969 37.75 20.875V14.625C37.75 11.3906 33.7812 8.79688 27.75 8ZM10.25 17.4688V13.7656C11.4936 13.9254 12.7462 14.0037 14 14C15.2538 14.0037 16.5064 13.9254 17.75 13.7656V17.4688C16.5095 17.6621 15.2555 17.7561 14 17.75C12.7445 17.7561 11.4905 17.6621 10.25 17.4688ZM25.25 11.1719V13.375C25.25 14.6875 23.3125 16.0937 20.25 16.9531V13.2969C22.2656 12.8125 23.9688 12.0781 25.25 11.1719ZM2.75 13.375V11.1719C4.03125 12.0781 5.73438 12.8125 7.75 13.2969V16.9531C4.6875 16.0937 2.75 14.6875 2.75 13.375ZM12.75 20.875V20.2188L14 20.25C14.6146 20.25 15.2083 20.2344 15.7812 20.2031C16.4062 20.4219 17.0625 20.6094 17.75 20.7812V24.4531C14.6875 23.5938 12.75 22.1875 12.75 20.875ZM20.25 24.9688V21.25C21.4934 21.4131 22.746 21.4966 24 21.5C25.2538 21.5037 26.5064 21.4254 27.75 21.2656V24.9688C25.2641 25.3438 22.7359 25.3438 20.25 24.9688ZM30.25 24.4531V20.7969C32.2656 20.3125 33.9688 19.5781 35.25 18.6719V20.875C35.25 22.1875 33.3125 23.5938 30.25 24.4531Z" fill="currentColor"/>
</svg>
