<svg width="14" height="12" viewBox="0 0 14 12" fill="currentColor" xmlns="http://www.w3.org/2000/svg">
<path d="M8.86441 11.1794L6.26186 8.57688L6.96441 7.87433L8.86441 9.75383L12.6439 5.97433L13.3464 6.6974L8.86441 11.1794ZM1.66698 2.60257V4.73073H12.3336V2.60257H1.66698ZM0.666992 1.20513C0.666992 0.868377 0.783659 0.583333 1.01699 0.35C1.25033 0.116667 1.53537 0 1.87213 0H12.1285C12.4652 0 12.7503 0.116667 12.9836 0.35C13.217 0.583333 13.3336 0.868377 13.3336 1.20513V4.73073H12.0042L8.86441 7.8705L6.97466 5.98075L4.37853 8.57688L4.79136 8.99998V9.99997H1.87213C1.53537 9.99997 1.25033 9.8833 1.01699 9.64997C0.783659 9.41663 0.666992 9.13159 0.666992 8.79483V1.20513Z" fill="currentColor"/>
</svg>
