<svg width="14" height="16" viewBox="0 0 14 16" fill="currentColor" xmlns="http://www.w3.org/2000/svg">
<path d="M5.552 6.712C5.096 6.712 4.736 7.112 4.736 7.6C4.736 8.088 5.104 8.488 5.552 8.488C6.008 8.488 6.368 8.088 6.368 7.6C6.376 7.112 6.008 6.712 5.552 6.712ZM8.472 6.712C8.016 6.712 7.656 7.112 7.656 7.6C7.656 8.088 8.024 8.488 8.472 8.488C8.928 8.488 9.288 8.088 9.288 7.6C9.288 7.112 8.928 6.712 8.472 6.712Z" fill="black"/>
<path d="M12.36 0H1.64C0.736 0 0 0.736 0 1.648V12.464C0 13.376 0.736 14.112 1.64 14.112H10.712L10.288 12.632L11.312 13.584L12.28 14.48L14 16V1.648C14 0.736 13.264 0 12.36 0ZM9.272 10.448C9.272 10.448 8.984 10.104 8.744 9.8C9.792 9.504 10.192 8.848 10.192 8.848C9.864 9.064 9.552 9.216 9.272 9.32C8.872 9.488 8.488 9.6 8.112 9.664C7.344 9.808 6.64 9.768 6.04 9.656C5.584 9.568 5.192 9.44 4.864 9.312C4.68 9.24 4.48 9.152 4.28 9.04C4.256 9.024 4.232 9.016 4.208 9C4.192 8.992 4.184 8.984 4.176 8.976C4.032 8.896 3.952 8.84 3.952 8.84C3.952 8.84 4.336 9.48 5.352 9.784C5.112 10.088 4.816 10.448 4.816 10.448C3.048 10.392 2.376 9.232 2.376 9.232C2.376 6.656 3.528 4.568 3.528 4.568C4.68 3.704 5.776 3.728 5.776 3.728L5.856 3.824C4.416 4.24 3.752 4.872 3.752 4.872C3.752 4.872 3.928 4.776 4.224 4.64C5.08 4.264 5.76 4.16 6.04 4.136C6.088 4.128 6.128 4.12 6.176 4.12C6.664 4.056 7.216 4.04 7.792 4.104C8.552 4.192 9.368 4.416 10.2 4.872C10.2 4.872 9.568 4.272 8.208 3.856L8.32 3.728C8.32 3.728 9.416 3.704 10.568 4.568C10.568 4.568 11.72 6.656 11.72 9.232C11.72 9.232 11.04 10.392 9.272 10.448Z" fill="currentColor"/>
</svg>
