<svg width="40" height="40" viewBox="0 0 40 40" fill="currentColor" xmlns="http://www.w3.org/2000/svg">
<mask id="mask0_1990_33381" style="mask-type:alpha" maskUnits="userSpaceOnUse" x="0" y="0" width="40" height="40">
<rect width="40" height="40" fill="currentColor"/>
</mask>
<g mask="url(#mask0_1990_33381)">
<path d="M3.33398 40.0002V33.3335H36.6673V40.0002H3.33398ZM6.66732 30.0002V23.7502L21.7507 8.66685L28.0007 14.9168L12.9173 30.0002H6.66732ZM10.0007 26.6668H11.5007L23.334 14.9168L21.7507 13.3335L10.0007 25.1668V26.6668ZM29.8757 13.0835L23.6257 6.83352L26.6257 3.83352C26.9312 3.50018 27.3201 3.34046 27.7923 3.35435C28.2645 3.36824 28.6534 3.52796 28.959 3.83352L32.8757 7.75018C33.1812 8.05574 33.334 8.43768 33.334 8.89602C33.334 9.35435 33.1812 9.75018 32.8757 10.0835L29.8757 13.0835Z" fill="currentColor"/>
</g>
</svg>
