<svg width="30" height="30" viewBox="0 0 30 30" fill="none" xmlns="http://www.w3.org/2000/svg">
<path d="M15.9375 14.0625V25.3125C15.9375 25.5611 15.8387 25.7996 15.6629 25.9754C15.4871 26.1512 15.2486 26.25 15 26.25C14.7514 26.25 14.5129 26.1512 14.3371 25.9754C14.1613 25.7996 14.0625 25.5611 14.0625 25.3125V14.0625C14.0625 13.8139 14.1613 13.5754 14.3371 13.3996C14.5129 13.2238 14.7514 13.125 15 13.125C15.2486 13.125 15.4871 13.2238 15.6629 13.3996C15.8387 13.5754 15.9375 13.8139 15.9375 14.0625ZM23.4375 22.5C23.1889 22.5 22.9504 22.5988 22.7746 22.7746C22.5988 22.9504 22.5 23.1889 22.5 23.4375V25.3125C22.5 25.5611 22.5988 25.7996 22.7746 25.9754C22.9504 26.1512 23.1889 26.25 23.4375 26.25C23.6861 26.25 23.9246 26.1512 24.1004 25.9754C24.2762 25.7996 24.375 25.5611 24.375 25.3125V23.4375C24.375 23.1889 24.2762 22.9504 24.1004 22.7746C23.9246 22.5988 23.6861 22.5 23.4375 22.5ZM26.25 16.875H24.375V4.6875C24.375 4.43886 24.2762 4.2004 24.1004 4.02459C23.9246 3.84877 23.6861 3.75 23.4375 3.75C23.1889 3.75 22.9504 3.84877 22.7746 4.02459C22.5988 4.2004 22.5 4.43886 22.5 4.6875V16.875H20.625C20.3764 16.875 20.1379 16.9738 19.9621 17.1496C19.7863 17.3254 19.6875 17.5639 19.6875 17.8125V19.6875C19.6875 19.9361 19.7863 20.1746 19.9621 20.3504C20.1379 20.5262 20.3764 20.625 20.625 20.625H26.25C26.4986 20.625 26.7371 20.5262 26.9129 20.3504C27.0887 20.1746 27.1875 19.9361 27.1875 19.6875V17.8125C27.1875 17.5639 27.0887 17.3254 26.9129 17.1496C26.7371 16.9738 26.4986 16.875 26.25 16.875ZM6.5625 18.75C6.31386 18.75 6.0754 18.8488 5.89959 19.0246C5.72377 19.2004 5.625 19.4389 5.625 19.6875V25.3125C5.625 25.5611 5.72377 25.7996 5.89959 25.9754C6.0754 26.1512 6.31386 26.25 6.5625 26.25C6.81114 26.25 7.0496 26.1512 7.22541 25.9754C7.40123 25.7996 7.5 25.5611 7.5 25.3125V19.6875C7.5 19.4389 7.40123 19.2004 7.22541 19.0246C7.0496 18.8488 6.81114 18.75 6.5625 18.75ZM9.375 13.125H7.5V4.6875C7.5 4.43886 7.40123 4.2004 7.22541 4.02459C7.0496 3.84877 6.81114 3.75 6.5625 3.75C6.31386 3.75 6.0754 3.84877 5.89959 4.02459C5.72377 4.2004 5.625 4.43886 5.625 4.6875V13.125H3.75C3.50136 13.125 3.2629 13.2238 3.08709 13.3996C2.91127 13.5754 2.8125 13.8139 2.8125 14.0625V15.9375C2.8125 16.1861 2.91127 16.4246 3.08709 16.6004C3.2629 16.7762 3.50136 16.875 3.75 16.875H9.375C9.62364 16.875 9.8621 16.7762 10.0379 16.6004C10.2137 16.4246 10.3125 16.1861 10.3125 15.9375V14.0625C10.3125 13.8139 10.2137 13.5754 10.0379 13.3996C9.8621 13.2238 9.62364 13.125 9.375 13.125ZM17.8125 7.5H15.9375V4.6875C15.9375 4.43886 15.8387 4.2004 15.6629 4.02459C15.4871 3.84877 15.2486 3.75 15 3.75C14.7514 3.75 14.5129 3.84877 14.3371 4.02459C14.1613 4.2004 14.0625 4.43886 14.0625 4.6875V7.5H12.1875C11.9389 7.5 11.7004 7.59877 11.5246 7.77459C11.3488 7.9504 11.25 8.18886 11.25 8.4375V10.3125C11.25 10.5611 11.3488 10.7996 11.5246 10.9754C11.7004 11.1512 11.9389 11.25 12.1875 11.25H17.8125C18.0611 11.25 18.2996 11.1512 18.4754 10.9754C18.6512 10.7996 18.75 10.5611 18.75 10.3125V8.4375C18.75 8.18886 18.6512 7.9504 18.4754 7.77459C18.2996 7.59877 18.0611 7.5 17.8125 7.5Z" fill="currentColor"/>
</svg>
