<svg width="28" height="38" viewBox="0 0 28 38" fill="none" xmlns="http://www.w3.org/2000/svg">
<path d="M27.7187 17.4687C27.6723 17.2673 27.5766 17.0804 27.4403 16.925C27.3039 16.7696 27.1311 16.6504 26.9374 16.5781L17.9374 13.2031L20.2187 1.75C20.2711 1.4847 20.2372 1.20957 20.1219 0.964939C20.0067 0.720307 19.816 0.519035 19.578 0.390624C19.3377 0.262769 19.0618 0.217962 18.7933 0.263177C18.5249 0.308393 18.2789 0.441093 18.0937 0.640624L0.593664 19.3906C0.45027 19.5394 0.346517 19.7218 0.291919 19.9211C0.23732 20.1204 0.233622 20.3302 0.281164 20.5312C0.330082 20.7316 0.426652 20.9172 0.562667 21.0723C0.698682 21.2273 0.870121 21.3473 1.06241 21.4219L10.0624 24.7969L7.78116 36.25C7.7287 36.5153 7.7626 36.7904 7.87788 37.0351C7.99317 37.2797 8.18378 37.481 8.42179 37.6094C8.60119 37.6999 8.79898 37.748 8.99991 37.75C9.16971 37.7507 9.33784 37.7164 9.49377 37.6492C9.64971 37.582 9.7901 37.4833 9.90616 37.3594L27.4062 18.6094C27.5496 18.4606 27.6533 18.2782 27.7079 18.0789C27.7625 17.8796 27.7662 17.6698 27.7187 17.4687Z" fill="#E087FF"/>
</svg>
