<svg width="28" height="37" viewBox="0 0 28 37" fill="currentColor" xmlns="http://www.w3.org/2000/svg">
<g filter="url(#filter0_i_1204_1942)">
<path d="M23.375 12.1251C22.7266 12.126 22.0863 12.2701 21.5 12.5469V7.12505C21.4959 5.966 21.0336 4.85559 20.214 4.03601C19.3945 3.21643 18.2841 2.75417 17.125 2.75005C16.3935 2.74801 15.6733 2.93074 15.0313 3.2813C14.707 2.29469 14.0424 1.45559 13.1562 0.914064C12.27 0.372543 11.2201 0.163921 10.1942 0.325507C9.16835 0.487093 8.2334 1.00835 7.55659 1.79605C6.87979 2.58376 6.50526 3.58654 6.5 4.62505V5.67193C5.83313 5.35561 5.09707 5.21314 4.36034 5.25779C3.6236 5.30244 2.91013 5.53276 2.28635 5.9273C1.66256 6.32185 1.14873 6.86779 0.792686 7.51433C0.436641 8.16086 0.249953 8.88696 0.25 9.62505V22.7501C0.25 26.3968 1.69866 29.8941 4.27728 32.4728C6.85591 35.0514 10.3533 36.5001 14 36.5001C17.6467 36.5001 21.1441 35.0514 23.7227 32.4728C26.3013 29.8941 27.75 26.3968 27.75 22.7501V16.5001C27.7459 15.341 27.2836 14.2306 26.464 13.411C25.6445 12.5914 24.5341 12.1292 23.375 12.1251ZM25.25 22.7501C25.25 25.7337 24.0647 28.5952 21.955 30.705C19.8452 32.8148 16.9837 34.0001 14 34.0001C11.0163 34.0001 8.15483 32.8148 6.04505 30.705C3.93526 28.5952 2.75 25.7337 2.75 22.7501V9.62505C2.75 9.12777 2.94754 8.65086 3.29917 8.29923C3.65081 7.9476 4.12772 7.75005 4.625 7.75005C5.12228 7.75005 5.59919 7.9476 5.95083 8.29923C6.30246 8.65086 6.5 9.12777 6.5 9.62505V16.5001C6.5 16.8316 6.6317 17.1495 6.86612 17.3839C7.10054 17.6184 7.41848 17.7501 7.75 17.7501C8.08152 17.7501 8.39946 17.6184 8.63388 17.3839C8.8683 17.1495 9 16.8316 9 16.5001V4.62505C9 4.12777 9.19754 3.65086 9.54917 3.29923C9.90081 2.9476 10.3777 2.75005 10.875 2.75005C11.3723 2.75005 11.8492 2.9476 12.2008 3.29923C12.5525 3.65086 12.75 4.12777 12.75 4.62505V15.2501C12.75 15.5816 12.8817 15.8995 13.1161 16.1339C13.3505 16.3684 13.6685 16.5001 14 16.5001C14.3315 16.5001 14.6495 16.3684 14.8839 16.1339C15.1183 15.8995 15.25 15.5816 15.25 15.2501V7.12505C15.25 6.62777 15.4475 6.15086 15.7992 5.79923C16.1508 5.4476 16.6277 5.25005 17.125 5.25005C17.6223 5.25005 18.0992 5.4476 18.4508 5.79923C18.8025 6.15086 19 6.62777 19 7.12505V18.4844C17.2531 18.7797 15.6672 19.6838 14.5232 21.0366C13.3792 22.3894 12.7511 24.1034 12.75 25.8751C12.75 26.2066 12.8817 26.5245 13.1161 26.7589C13.3505 26.9934 13.6685 27.1251 14 27.1251C14.3315 27.1251 14.6495 26.9934 14.8839 26.7589C15.1183 26.5245 15.25 26.2066 15.25 25.8751C15.2541 24.5502 15.7822 23.2809 16.719 22.3441C17.6558 21.4073 18.9252 20.8792 20.25 20.8751C20.5815 20.8751 20.8995 20.7434 21.1339 20.5089C21.3683 20.2745 21.5 19.9566 21.5 19.6251V16.5001C21.5 16.0028 21.6975 15.5259 22.0492 15.1742C22.4008 14.8226 22.8777 14.6251 23.375 14.6251C23.8723 14.6251 24.3492 14.8226 24.7008 15.1742C25.0525 15.5259 25.25 16.0028 25.25 16.5001V22.7501Z" fill="currentColor"/>
</g>
<defs>
<filter id="filter0_i_1204_1942" x="0.25" y="0.272217" width="27.5" height="36.7278" filterUnits="userSpaceOnUse" color-interpolation-filters="sRGB">
<feFlood flood-opacity="0" result="BackgroundImageFix"/>
<feBlend mode="normal" in="SourceGraphic" in2="BackgroundImageFix" result="shape"/>
<feColorMatrix in="SourceAlpha" type="matrix" values="0 0 0 0 0 0 0 0 0 0 0 0 0 0 0 0 0 0 127 0" result="hardAlpha"/>
<feOffset dy="0.5"/>
<feGaussianBlur stdDeviation="1"/>
<feComposite in2="hardAlpha" operator="arithmetic" k2="-1" k3="1"/>
<feColorMatrix type="matrix" values="0 0 0 0 1 0 0 0 0 1 0 0 0 0 1 0 0 0 0.15 0"/>
<feBlend mode="normal" in2="shape" result="effect1_innerShadow_1204_1942"/>
</filter>
</defs>
</svg>
