<svg width="40" height="28" viewBox="0 0 40 28" fill="currentColor" xmlns="http://www.w3.org/2000/svg">
<path d="M18.7187 26.5625C18.6496 26.8338 18.4925 27.0745 18.2719 27.247C18.0514 27.4195 17.7799 27.5139 17.4999 27.5156C17.3992 27.5153 17.299 27.4995 17.2031 27.4688L12.4843 26.2969C12.1016 26.2002 11.7478 26.0126 11.4531 25.75L7.93745 22.6875C7.81433 22.5808 7.71344 22.4509 7.64053 22.3052C7.56762 22.1595 7.52412 22.0009 7.51251 21.8384C7.5009 21.6759 7.52141 21.5127 7.57288 21.3581C7.62434 21.2036 7.70575 21.0606 7.81245 20.9375C7.91914 20.8144 8.04905 20.7135 8.19474 20.6406C8.34043 20.5677 8.49905 20.5242 8.66156 20.5126C8.82406 20.501 8.98726 20.5215 9.14183 20.5729C9.29641 20.6244 9.43933 20.7058 9.56245 20.8125L13.0937 23.875L17.7968 25.0469C18.1185 25.1283 18.3953 25.3327 18.5677 25.6162C18.7402 25.8996 18.7944 26.2395 18.7187 26.5625ZM39.4374 11.6875C39.3347 12.0022 39.1697 12.293 38.9523 12.5427C38.7348 12.7923 38.4694 12.9957 38.1718 13.1406L34.5312 14.9688L32.2031 17.7031H32.1718C32.1718 17.7188 32.1562 17.7188 32.1562 17.7344H32.1406L26.3906 23.4844C25.914 23.9502 25.2757 24.2134 24.6093 24.2188C24.409 24.2169 24.2096 24.1907 24.0156 24.1406L14.9531 21.9063C14.6109 21.8264 14.2907 21.6717 14.0156 21.4531L5.57807 14.8594L1.82807 12.9844C1.22906 12.6808 0.774185 12.1529 0.562445 11.5156C0.462343 11.1999 0.425989 10.8674 0.455495 10.5375C0.485 10.2075 0.579778 9.88675 0.73432 9.59377L4.57807 2.23439C4.88183 1.65525 5.39918 1.21716 6.02046 1.01298C6.64173 0.808807 7.3181 0.854595 7.90619 1.14064L11.4062 2.89064L19.0156 0.67189C19.586 0.516454 20.1924 0.560556 20.7343 0.796891L25.8906 3.14064H28.4531L32.0937 1.31252C32.6792 1.0212 33.3556 0.97092 33.9778 1.17247C34.5999 1.37401 35.1183 1.81133 35.4218 2.39064L39.2656 9.75002C39.4206 10.0457 39.5155 10.3691 39.545 10.7016C39.5745 11.0341 39.538 11.3692 39.4374 11.6875ZM29.3281 17.0313L24.3906 13.4375L23.1249 14.3906C22.0411 15.1972 20.726 15.6329 19.3749 15.6329C18.0239 15.6329 16.7088 15.1972 15.6249 14.3906L14.7812 13.75C14.4929 13.5365 14.2543 13.2632 14.0818 12.9487C13.9092 12.6343 13.8068 12.2862 13.7816 11.9283C13.7563 11.5705 13.8089 11.2115 13.9356 10.8759C14.0623 10.5404 14.2601 10.2362 14.5156 9.98439L20.6249 3.85939L20.9062 3.62502L19.7031 3.07814L12.0937 5.29689L7.8437 13.4531L15.5624 19.4844L24.6093 21.75L29.3281 17.0313ZM32.2499 13.7969L27.9999 5.64064H22.3906L16.2812 11.75L17.1249 12.3906C17.777 12.8704 18.5654 13.1291 19.3749 13.1291C20.1845 13.1291 20.9729 12.8704 21.6249 12.3906L23.6249 10.8906C23.8382 10.7298 24.0974 10.6414 24.3646 10.6386C24.6317 10.6358 24.8927 10.7187 25.1093 10.875L31.0468 15.1875L32.2499 13.7969Z" fill="currentColor"/>
</svg>
