<svg width="16" height="16" viewBox="0 0 16 16" fill="currentColor" xmlns="http://www.w3.org/2000/svg">
<path d="M8.00562 3.58602C8.03364 3.19799 8.16179 2.82386 8.37756 2.50014C8.59332 2.17643 8.88934 1.91419 9.23671 1.73902C9.58408 1.56386 9.97094 1.48175 10.3595 1.50072C10.7481 1.5197 11.1251 1.6391 11.4537 1.84727C11.4913 1.87185 11.5216 1.9061 11.5414 1.94642C11.5611 1.98674 11.5697 2.03164 11.5661 2.0764C11.5625 2.12116 11.5469 2.16413 11.521 2.2008C11.4951 2.23746 11.4598 2.26647 11.4187 2.28477C10.8474 2.54181 10.3625 2.95833 10.0221 3.48429C9.68172 4.01025 9.50044 4.62328 9.5 5.24977C9.5 5.32289 9.5 5.39602 9.5075 5.46789C9.51095 5.51332 9.50191 5.55883 9.48137 5.5995C9.46084 5.64017 9.42957 5.67445 9.39097 5.69864C9.35236 5.72283 9.30788 5.73602 9.26233 5.73677C9.21677 5.73752 9.17188 5.7258 9.1325 5.70289C8.76417 5.49221 8.46292 5.18166 8.26353 4.8071C8.06414 4.43253 7.97473 4.00922 8.00562 3.58602ZM15 10.0379C15.0009 10.3236 14.9217 10.6038 14.7715 10.8469C14.6213 11.0899 14.406 11.286 14.15 11.4129L14.1225 11.4254L11.6956 12.4591C11.6716 12.4697 11.6467 12.4781 11.6213 12.4841L7.62125 13.4841C7.58163 13.4943 7.54091 13.4996 7.5 13.4998H1C0.734784 13.4998 0.48043 13.3944 0.292893 13.2069C0.105357 13.0193 0 12.765 0 12.4998V9.99977C0 9.73455 0.105357 9.4802 0.292893 9.29266C0.48043 9.10512 0.734784 8.99977 1 8.99977H2.79312L4.20687 7.58539C4.39225 7.39919 4.61269 7.25156 4.85546 7.15104C5.09822 7.05052 5.3585 6.99911 5.62125 6.99977H8.75C9.01411 6.99974 9.2748 7.05949 9.51253 7.17454C9.75026 7.28959 9.95887 7.45696 10.1227 7.6641C10.2866 7.87124 10.4014 8.11278 10.4586 8.37061C10.5158 8.62845 10.514 8.89589 10.4531 9.15289L13.0681 8.55164C13.2958 8.49136 13.5342 8.48415 13.7651 8.53058C13.996 8.577 14.2131 8.67582 14.3998 8.81942C14.5864 8.96302 14.7376 9.14755 14.8417 9.35881C14.9457 9.57006 14.9999 9.80239 15 10.0379ZM14 10.0379C13.9999 9.95522 13.9808 9.87368 13.9441 9.79959C13.9074 9.72551 13.8542 9.66087 13.7885 9.6107C13.7227 9.56053 13.6464 9.52617 13.5652 9.51029C13.4841 9.49441 13.4004 9.49744 13.3206 9.51914L13.3013 9.52414L9.11375 10.4873C9.07702 10.4955 9.03951 10.4997 9.00187 10.4998H7C6.86739 10.4998 6.74021 10.4471 6.64645 10.3533C6.55268 10.2596 6.5 10.1324 6.5 9.99977C6.5 9.86716 6.55268 9.73998 6.64645 9.64621C6.74021 9.55245 6.86739 9.49977 7 9.49977H8.75C8.94891 9.49977 9.13968 9.42075 9.28033 9.2801C9.42098 9.13944 9.5 8.94868 9.5 8.74977C9.5 8.55086 9.42098 8.36009 9.28033 8.21944C9.13968 8.07879 8.94891 7.99977 8.75 7.99977H5.62125C5.48988 7.99935 5.35974 8.02505 5.23839 8.07537C5.11703 8.12569 5.0069 8.19963 4.91437 8.29289L3.5 9.70664V12.4998H7.4375L11.3394 11.5241L13.7144 10.5129C13.8008 10.4673 13.8731 10.399 13.9235 10.3153C13.9738 10.2315 14.0003 10.1356 14 10.0379ZM10.5 5.24977C10.5 5.69478 10.632 6.12979 10.8792 6.4998C11.1264 6.86981 11.4778 7.1582 11.889 7.3285C12.3001 7.49879 12.7525 7.54335 13.189 7.45653C13.6254 7.36972 14.0263 7.15543 14.341 6.84076C14.6557 6.52609 14.87 6.12518 14.9568 5.68872C15.0436 5.25226 14.999 4.79986 14.8287 4.38873C14.6584 3.9776 14.37 3.62619 14 3.37896C13.63 3.13173 13.195 2.99977 12.75 2.99977C12.1533 2.99977 11.581 3.23682 11.159 3.65878C10.7371 4.08073 10.5 4.65303 10.5 5.24977Z" fill="currentColor"/>
</svg>
