<svg width="38" height="31" viewBox="0 0 38 31" fill="currentColor" xmlns="http://www.w3.org/2000/svg">
<g filter="url(#filter0_i_1204_875)">
<path d="M37.75 29.4999C37.75 29.8315 37.6183 30.1494 37.3839 30.3838C37.1495 30.6182 36.8315 30.7499 36.5 30.7499H1.5C1.16848 30.7499 0.850537 30.6182 0.616116 30.3838C0.381696 30.1494 0.25 29.8315 0.25 29.4999C0.25 29.1684 0.381696 28.8505 0.616116 28.6161C0.850537 28.3816 1.16848 28.2499 1.5 28.2499H36.5C36.8315 28.2499 37.1495 28.3816 37.3839 28.6161C37.6183 28.8505 37.75 29.1684 37.75 29.4999ZM1.54687 12.3437C1.47238 12.0817 1.48549 11.8026 1.58421 11.5487C1.68292 11.2949 1.86184 11.0802 2.09375 10.9374L18.3438 0.937435C18.5404 0.814008 18.7678 0.748535 19 0.748535C19.2322 0.748535 19.4596 0.814008 19.6562 0.937435L35.9062 10.9374C36.1371 11.0805 36.3151 11.2949 36.4133 11.5482C36.5115 11.8015 36.5245 12.0799 36.4503 12.3412C36.3761 12.6025 36.2189 12.8326 36.0023 12.9965C35.7857 13.1605 35.5216 13.2495 35.25 13.2499H31.5V23.2499H34C34.3315 23.2499 34.6495 23.3816 34.8839 23.6161C35.1183 23.8505 35.25 24.1684 35.25 24.4999C35.25 24.8315 35.1183 25.1494 34.8839 25.3838C34.6495 25.6182 34.3315 25.7499 34 25.7499H4C3.66848 25.7499 3.35054 25.6182 3.11612 25.3838C2.8817 25.1494 2.75 24.8315 2.75 24.4999C2.75 24.1684 2.8817 23.8505 3.11612 23.6161C3.35054 23.3816 3.66848 23.2499 4 23.2499H6.5V13.2499H2.75C2.4782 13.2502 2.21371 13.1619 1.99661 12.9984C1.77951 12.8348 1.62162 12.605 1.54687 12.3437ZM21.5 21.9999C21.5 22.3315 21.6317 22.6494 21.8661 22.8838C22.1005 23.1182 22.4185 23.2499 22.75 23.2499C23.0815 23.2499 23.3995 23.1182 23.6339 22.8838C23.8683 22.6494 24 22.3315 24 21.9999V14.4999C24 14.1684 23.8683 13.8505 23.6339 13.6161C23.3995 13.3816 23.0815 13.2499 22.75 13.2499C22.4185 13.2499 22.1005 13.3816 21.8661 13.6161C21.6317 13.8505 21.5 14.1684 21.5 14.4999V21.9999ZM14 21.9999C14 22.3315 14.1317 22.6494 14.3661 22.8838C14.6005 23.1182 14.9185 23.2499 15.25 23.2499C15.5815 23.2499 15.8995 23.1182 16.1339 22.8838C16.3683 22.6494 16.5 22.3315 16.5 21.9999V14.4999C16.5 14.1684 16.3683 13.8505 16.1339 13.6161C15.8995 13.3816 15.5815 13.2499 15.25 13.2499C14.9185 13.2499 14.6005 13.3816 14.3661 13.6161C14.1317 13.8505 14 14.1684 14 14.4999V21.9999Z" fill="currentColor"/>
</g>
<defs>
<filter id="filter0_i_1204_875" x="0.25" y="0.748535" width="37.5" height="30.5015" filterUnits="userSpaceOnUse" color-interpolation-filters="sRGB">
<feFlood flood-opacity="0" result="BackgroundImageFix"/>
<feBlend mode="normal" in="SourceGraphic" in2="BackgroundImageFix" result="shape"/>
<feColorMatrix in="SourceAlpha" type="matrix" values="0 0 0 0 0 0 0 0 0 0 0 0 0 0 0 0 0 0 127 0" result="hardAlpha"/>
<feOffset dy="0.5"/>
<feGaussianBlur stdDeviation="1"/>
<feComposite in2="hardAlpha" operator="arithmetic" k2="-1" k3="1"/>
<feColorMatrix type="matrix" values="0 0 0 0 1 0 0 0 0 1 0 0 0 0 1 0 0 0 0.15 0"/>
<feBlend mode="normal" in2="shape" result="effect1_innerShadow_1204_875"/>
</filter>
</defs>
</svg>
