<svg width="24" height="24" viewBox="0 0 24 24" fill="none" xmlns="http://www.w3.org/2000/svg">
<mask id="mask0_2179_10894" style="mask-type:alpha" maskUnits="userSpaceOnUse" x="0" y="0" width="24" height="24">
<rect width="24" height="24" fill="currentColor"/>
</mask>
<g mask="url(#mask0_2179_10894)">
<path d="M20.475 23.3L18.175 21H5C4.45 21 3.979 20.8043 3.587 20.413C3.19566 20.021 3 19.55 3 19V5.825L0.699997 3.5L2.1 2.1L21.9 21.9L20.475 23.3ZM5 19H16.175L14.175 17H6L9 13L11 15.725L11.85 14.675L5 7.825V19ZM21 18.175L19 16.175V5H7.825L5.825 3H19C19.55 3 20.021 3.19567 20.413 3.587C20.8043 3.979 21 4.45 21 5V18.175Z" fill="currentColor"/>
</g>
</svg>
