<svg width="15" height="18" viewBox="0 0 15 18" fill="currentColor" xmlns="http://www.w3.org/2000/svg">
<path d="M12.8263 6.89307H11.5299V2.102C11.5312 1.62982 11.3667 1.17102 11.0629 0.799931C10.7591 0.428847 10.3338 0.167221 9.85597 0.0574398C9.37813 -0.0523411 8.87572 -0.00384433 8.43014 0.195073C7.98456 0.393989 7.62192 0.731674 7.40097 1.15341C7.18001 1.57515 7.11369 2.05623 7.21275 2.51872C7.31181 2.98121 7.57045 3.39801 7.94675 3.70158C8.32306 4.00515 8.79499 4.17772 9.28609 4.19132C9.77719 4.20492 10.2587 4.05876 10.6525 3.77651V6.89307H5.64702C5.36147 6.89307 5.07872 6.94714 4.81492 7.0522C4.55112 7.15725 4.31143 7.31123 4.10957 7.50533C3.9077 7.69944 3.7476 7.92986 3.63842 8.18345C3.52923 8.43704 3.47311 8.70882 3.47324 8.98326C3.47324 8.99803 3.47324 9.01379 3.47324 9.02856V13.8196H2.17574C1.7464 13.8195 1.3266 13.9414 0.969253 14.1702C0.611908 14.3989 0.333006 14.7242 0.167687 15.105C0.00236737 15.4858 -0.041969 15.9052 0.0402643 16.3102C0.122498 16.7152 0.327619 17.0877 0.629785 17.3808C0.93195 17.674 1.31764 17.8746 1.73825 17.9575C2.15885 18.0403 2.59556 18.0016 2.99334 17.8463C3.39111 17.691 3.73216 17.426 3.9735 17.0847C4.21484 16.7435 4.34567 16.3412 4.34952 15.9285V14.6628H7.6189C7.32754 15.04 7.17712 15.5007 7.19198 15.9703C7.20684 16.4399 7.3861 16.8909 7.70077 17.2505C8.01544 17.61 8.44711 17.857 8.92595 17.9514C9.4048 18.0459 9.9028 17.9824 10.3394 17.7711C10.776 17.5598 11.1257 17.2131 11.3318 16.7872C11.538 16.3612 11.5886 15.8808 11.4755 15.4238C11.3623 14.9667 11.092 14.5597 10.7084 14.2686C10.3247 13.9775 9.85003 13.8193 9.3612 13.8196H4.34952V10.6578C4.76775 10.9584 5.28468 11.104 5.80558 11.0681C6.32649 11.0322 6.81647 10.817 7.18575 10.4621C7.55503 10.1072 7.77887 9.63628 7.81626 9.13565C7.85365 8.63502 7.70208 8.1382 7.38932 7.73624H10.6525V9.00591C10.6568 9.41825 10.7879 9.82016 11.0294 10.161C11.2709 10.5019 11.6119 10.7664 12.0095 10.9214C12.4071 11.0763 12.8436 11.1147 13.2638 11.0317C13.6841 10.9486 14.0694 10.748 14.3712 10.4549C14.673 10.1618 14.8779 9.78941 14.9599 9.38465C15.0419 8.9799 14.9975 8.56087 14.8322 8.18034C14.6669 7.79981 14.3881 7.4748 14.031 7.24626C13.6739 7.01771 13.2544 6.89585 12.8253 6.89603L12.8263 6.89307ZM9.35505 3.34705C9.09843 3.34705 8.84757 3.27391 8.6342 3.13689C8.42082 2.99986 8.25452 2.80511 8.15632 2.57724C8.05811 2.34938 8.03241 2.09865 8.08248 1.85675C8.13254 1.61485 8.25612 1.39265 8.43758 1.21825C8.61904 1.04386 8.85023 0.925091 9.10192 0.876975C9.35361 0.828858 9.6145 0.853554 9.85158 0.947937C10.0887 1.04232 10.2913 1.20215 10.4339 1.40722C10.5765 1.6123 10.6525 1.8534 10.6525 2.10003C10.6527 2.26392 10.6192 2.42623 10.5541 2.57769C10.489 2.72916 10.3934 2.86681 10.2729 2.98279C10.1525 3.09877 10.0094 3.1908 9.8519 3.25364C9.6944 3.31648 9.52557 3.34889 9.35505 3.34902V3.34705ZM10.6525 15.9098C10.6525 16.1565 10.5765 16.3976 10.4339 16.6026C10.2913 16.8077 10.0887 16.9675 9.85158 17.0619C9.6145 17.1563 9.35361 17.181 9.10192 17.1329C8.85023 17.0848 8.61904 16.966 8.43758 16.7916C8.25612 16.6172 8.13254 16.395 8.08248 16.1531C8.03241 15.9112 8.05811 15.6605 8.15632 15.4326C8.25452 15.2047 8.42082 15.01 8.6342 14.873C8.84757 14.7359 9.09843 14.6628 9.35505 14.6628C9.69909 14.6631 10.029 14.7945 10.2722 15.0283C10.5155 15.2621 10.6523 15.5792 10.6525 15.9098ZM2.17574 17.1559C1.91908 17.1559 1.66818 17.0827 1.45478 16.9456C1.24139 16.8086 1.07508 16.6137 0.976909 16.3858C0.878734 16.1579 0.853098 15.9071 0.903246 15.6652C0.953393 15.4233 1.07707 15.2011 1.25863 15.0267C1.44019 14.8524 1.67148 14.7337 1.92324 14.6857C2.175 14.6377 2.43591 14.6625 2.67298 14.757C2.91005 14.8516 3.11262 15.0115 3.25507 15.2167C3.39752 15.4219 3.47344 15.6631 3.47324 15.9098C3.47297 16.2404 3.33615 16.5573 3.09285 16.791C2.84955 17.0246 2.51968 17.1559 2.17574 17.1559ZM5.64702 10.2293C5.39036 10.2293 5.13946 10.1561 4.92606 10.0191C4.71267 9.88199 4.54636 9.68718 4.44819 9.45926C4.35001 9.23134 4.32438 8.98055 4.37453 8.73863C4.42467 8.4967 4.54835 8.27451 4.72991 8.10015C4.91147 7.92579 5.14276 7.8071 5.39452 7.75909C5.64628 7.71109 5.90719 7.73592 6.14426 7.83046C6.38133 7.92499 6.5839 8.08498 6.72635 8.29018C6.8688 8.49538 6.94472 8.73658 6.94452 8.98326C6.94425 9.31382 6.80743 9.63075 6.56413 9.86439C6.32083 10.098 5.99096 10.2293 5.64702 10.2293ZM12.8212 10.2293C12.5645 10.2293 12.3136 10.1561 12.1002 10.0191C11.8869 9.88199 11.7205 9.68718 11.6224 9.45926C11.5242 9.23134 11.4986 8.98055 11.5487 8.73863C11.5989 8.4967 11.7225 8.27451 11.9041 8.10015C12.0857 7.92579 12.3169 7.8071 12.5687 7.75909C12.8205 7.71109 13.0814 7.73592 13.3184 7.83046C13.5555 7.92499 13.7581 8.08498 13.9005 8.29018C14.043 8.49538 14.1189 8.73658 14.1187 8.98326C14.1184 9.31296 13.9823 9.62915 13.7401 9.86266C13.4979 10.0962 13.1694 10.228 12.8263 10.2293H12.8212Z" />
</svg>
