<svg width="12" height="12" viewBox="0 0 12 12" fill="currentColor" xmlns="http://www.w3.org/2000/svg">
<path d="M6.58332 7.02048H7.45831V5.27048H9.20831V4.39551H7.45831V2.64551H6.58332V4.39551H4.83332V5.27048H6.58332V7.02048ZM3.70032 9.20798C3.40566 9.20798 3.15625 9.1059 2.95209 8.90173C2.74792 8.69756 2.64584 8.44815 2.64584 8.15349V1.5125C2.64584 1.21784 2.74792 0.968424 2.95209 0.764258C3.15625 0.560091 3.40566 0.458008 3.70032 0.458008H10.3413C10.636 0.458008 10.8854 0.560091 11.0895 0.764258C11.2937 0.968424 11.3958 1.21784 11.3958 1.5125V8.15349C11.3958 8.44815 11.2937 8.69756 11.0895 8.90173C10.8854 9.1059 10.636 9.20798 10.3413 9.20798H3.70032ZM1.65866 11.2496C1.36401 11.2496 1.1146 11.1475 0.910437 10.9434C0.70627 10.7392 0.604187 10.4898 0.604187 10.1951V2.67917H1.47917V10.1951C1.47917 10.24 1.49787 10.2812 1.53526 10.3185C1.57266 10.3559 1.6138 10.3746 1.65866 10.3746H9.17465V11.2496H1.65866Z" fill="currentColor"/>
</svg>
