<svg width="111" height="24" viewBox="0 0 111 24" fill="none" xmlns="http://www.w3.org/2000/svg">
<path fill-rule="evenodd" clip-rule="evenodd" d="M19.4996 7.24053C19.817 7.55989 19.8155 8.07613 19.4961 8.39358L15.9718 11.8969L19.4961 15.4002C19.8155 15.7177 19.817 16.2339 19.4996 16.5533C19.1821 16.8726 18.6659 16.8742 18.3465 16.5567L14.2405 12.4751C14.0866 12.3221 14 12.114 14 11.8969C14 11.6798 14.0866 11.4717 14.2405 11.3187L18.3465 7.23709C18.6659 6.91963 19.1821 6.92117 19.4996 7.24053Z" fill="#3D7FFF"/>
<path fill-rule="evenodd" clip-rule="evenodd" d="M23.7723 7.23708C24.0916 6.91963 24.6079 6.92118 24.9253 7.24054L28.9824 11.3221C29.2985 11.6401 29.2985 12.1537 28.9824 12.4717L24.9253 16.5533C24.6079 16.8726 24.0916 16.8742 23.7723 16.5567C23.4529 16.2393 23.4514 15.723 23.7688 15.4037L27.2546 11.8969L23.7688 8.39013C23.4514 8.07076 23.4529 7.55453 23.7723 7.23708Z" fill="#3D7FFF"/>
<path d="M35.3727 15.9688V8.35903H36.8295L41.0366 14.0446H40.7322C40.7032 13.82 40.6779 13.6026 40.6561 13.3924C40.6344 13.1749 40.6126 12.9575 40.5909 12.7401C40.5764 12.5154 40.5619 12.2872 40.5474 12.0552C40.5402 11.8161 40.5329 11.566 40.5257 11.3051C40.5184 11.037 40.5148 10.747 40.5148 10.4354V8.35903H42.1128V15.9688H40.6344L36.3403 10.2289L36.7534 10.2397C36.7896 10.6166 36.8186 10.9391 36.8403 11.2073C36.8693 11.4682 36.8911 11.6965 36.9056 11.8921C36.9201 12.0878 36.931 12.2581 36.9382 12.4031C36.9527 12.5481 36.9599 12.6857 36.9599 12.8162C36.9672 12.9466 36.9708 13.0843 36.9708 13.2293V15.9688H35.3727ZM46.6 16.0775C45.9767 16.0775 45.4332 15.9507 44.9693 15.697C44.5055 15.4434 44.1431 15.0955 43.8822 14.6534C43.6213 14.2113 43.4909 13.704 43.4909 13.1315C43.4909 12.6894 43.5633 12.2835 43.7083 11.9139C43.8532 11.5443 44.0562 11.2254 44.3171 10.9572C44.578 10.6818 44.886 10.4717 45.2411 10.3267C45.6035 10.1745 45.9948 10.0984 46.4152 10.0984C46.8066 10.0984 47.1689 10.1709 47.5023 10.3158C47.8357 10.4535 48.122 10.6528 48.3611 10.9137C48.6075 11.1674 48.796 11.4682 48.9264 11.8161C49.0569 12.1639 49.1148 12.5444 49.1004 12.9575L49.0895 13.4358H44.4693L44.2192 12.4901H47.8176L47.6436 12.6857V12.4466C47.6291 12.2509 47.5639 12.0733 47.448 11.9139C47.3392 11.7545 47.1979 11.6312 47.024 11.5443C46.85 11.4573 46.6544 11.4138 46.4369 11.4138C46.118 11.4138 45.8463 11.4754 45.6216 11.5986C45.4042 11.7219 45.2375 11.903 45.1215 12.1422C45.0055 12.3813 44.9476 12.6712 44.9476 13.0119C44.9476 13.3598 45.0201 13.6605 45.165 13.9142C45.3172 14.1679 45.5274 14.3671 45.7955 14.5121C46.0709 14.6498 46.3935 14.7186 46.7631 14.7186C47.0167 14.7186 47.2486 14.6788 47.4588 14.5991C47.669 14.5193 47.8937 14.3816 48.1328 14.186L48.8721 15.2187C48.6619 15.4072 48.4299 15.5666 48.1763 15.697C47.9226 15.8203 47.6617 15.9145 47.3936 15.9797C47.1254 16.0449 46.8609 16.0775 46.6 16.0775ZM52.3936 16.0775C51.9153 16.0775 51.4841 15.9471 51.1 15.6862C50.7158 15.4253 50.4114 15.0702 50.1868 14.6208C49.9621 14.1714 49.8498 13.6569 49.8498 13.0771C49.8498 12.4973 49.9621 11.9863 50.1868 11.5443C50.4187 11.0949 50.7303 10.7435 51.1217 10.4898C51.5131 10.2289 51.9588 10.0984 52.4588 10.0984C52.7415 10.0984 52.9988 10.1419 53.2307 10.2289C53.4699 10.3086 53.6764 10.4209 53.8503 10.5659C54.0315 10.7108 54.1837 10.8775 54.3069 11.0659C54.4302 11.2544 54.5171 11.4573 54.5678 11.6747L54.2417 11.6204V10.218H55.7745V15.9688H54.22V14.5882L54.5678 14.5556C54.5098 14.7585 54.4156 14.9506 54.2852 15.1317C54.1547 15.3129 53.9917 15.476 53.796 15.6209C53.6075 15.7586 53.3938 15.871 53.1546 15.958C52.9154 16.0377 52.6618 16.0775 52.3936 16.0775ZM52.8176 14.7404C53.1075 14.7404 53.3611 14.6715 53.5786 14.5338C53.796 14.3962 53.9627 14.2041 54.0786 13.9577C54.2019 13.704 54.2634 13.4105 54.2634 13.0771C54.2634 12.751 54.2019 12.4647 54.0786 12.2183C53.9627 11.9719 53.796 11.7798 53.5786 11.6421C53.3611 11.4971 53.1075 11.4247 52.8176 11.4247C52.5349 11.4247 52.2849 11.4971 52.0675 11.6421C51.8573 11.7798 51.6906 11.9719 51.5674 12.2183C51.4442 12.4647 51.3826 12.751 51.3826 13.0771C51.3826 13.4105 51.4442 13.704 51.5674 13.9577C51.6906 14.2041 51.8573 14.3962 52.0675 14.5338C52.2849 14.6715 52.5349 14.7404 52.8176 14.7404ZM57.3223 15.9688V10.218H58.8116L58.866 12.0661L58.6051 11.6856C58.692 11.3884 58.8333 11.1203 59.029 10.8811C59.2247 10.6347 59.453 10.4426 59.7139 10.305C59.982 10.1673 60.2611 10.0984 60.551 10.0984C60.6742 10.0984 60.7937 10.1093 60.9097 10.131C61.0257 10.1528 61.1235 10.1781 61.2033 10.2071L60.7901 11.903C60.7032 11.8595 60.5981 11.8233 60.4749 11.7943C60.3517 11.7581 60.2249 11.74 60.0944 11.74C59.9205 11.74 59.7574 11.7726 59.6052 11.8378C59.4602 11.8958 59.3334 11.9828 59.2247 12.0987C59.116 12.2074 59.029 12.3379 58.9638 12.4901C58.9058 12.6423 58.8768 12.809 58.8768 12.9901V15.9688H57.3223ZM68.1079 16.0775C67.6366 16.0775 67.2054 16.0195 66.814 15.9036C66.4299 15.7877 66.0856 15.6173 65.7813 15.3927C65.4841 15.168 65.216 14.8962 64.9768 14.5773L65.9987 13.4141C66.3538 13.907 66.7053 14.244 67.0532 14.4251C67.4083 14.5991 67.7924 14.686 68.2057 14.686C68.4302 14.686 68.6297 14.6571 68.8036 14.5991C68.9846 14.5338 69.126 14.4432 69.2276 14.3273C69.3287 14.2113 69.3798 14.0736 69.3798 13.9142C69.3798 13.7982 69.3543 13.6931 69.3037 13.5989C69.2526 13.4974 69.1803 13.4105 69.0863 13.338C68.9917 13.2583 68.8797 13.1895 68.7493 13.1315C68.6188 13.0662 68.4737 13.0119 68.3144 12.9684C68.1546 12.9177 67.9809 12.8778 67.7924 12.8488C67.3865 12.7546 67.0314 12.6423 66.727 12.5118C66.4226 12.3741 66.169 12.2074 65.9661 12.0117C65.7631 11.8088 65.611 11.5805 65.5095 11.3268C65.4153 11.0732 65.3681 10.7869 65.3681 10.468C65.3681 10.1419 65.4406 9.84113 65.5856 9.56573C65.7305 9.28308 65.9298 9.04029 66.1835 8.83736C66.4444 8.63443 66.7416 8.47861 67.0749 8.3699C67.4156 8.26119 67.7743 8.20683 68.1514 8.20683C68.615 8.20683 69.0211 8.26119 69.3689 8.3699C69.7168 8.47137 70.0174 8.61994 70.2712 8.81562C70.5322 9.0113 70.7496 9.25046 70.9235 9.53311L69.8908 10.5333C69.7386 10.3303 69.5717 10.16 69.3907 10.0223C69.2167 9.88462 69.0243 9.78315 68.8145 9.71792C68.6112 9.64545 68.4014 9.60921 68.184 9.60921C67.9446 9.60921 67.7381 9.64182 67.5641 9.70705C67.3902 9.76503 67.2525 9.852 67.151 9.96796C67.0568 10.0839 67.0097 10.2252 67.0097 10.3919C67.0097 10.5224 67.0423 10.6383 67.1075 10.7398C67.1728 10.8413 67.267 10.9318 67.3902 11.0116C67.5134 11.084 67.662 11.1493 67.8359 11.2073C68.0098 11.2653 68.2019 11.316 68.4123 11.3595C68.8107 11.4392 69.1695 11.5443 69.4885 11.6747C69.807 11.8052 70.0788 11.9646 70.3039 12.1531C70.5354 12.3342 70.7132 12.5516 70.8365 12.8053C70.9594 13.0517 71.0214 13.3308 71.0214 13.6424C71.0214 14.157 70.898 14.5954 70.6517 14.9578C70.405 15.3202 70.0647 15.5992 69.6298 15.7949C69.195 15.9833 68.6873 16.0775 68.1079 16.0775ZM74.9551 16.0775C74.368 16.0775 73.8424 15.9507 73.3788 15.697C72.9222 15.4361 72.5596 15.081 72.2916 14.6317C72.0307 14.1823 71.9003 13.6678 71.9003 13.088C71.9003 12.5082 72.0307 11.9972 72.2916 11.5551C72.5596 11.1058 72.9222 10.7507 73.3788 10.4898C73.8424 10.2289 74.368 10.0984 74.9551 10.0984C75.5345 10.0984 76.0531 10.2289 76.5096 10.4898C76.9733 10.7507 77.3358 11.1058 77.5968 11.5551C77.8577 11.9972 77.9881 12.5082 77.9881 13.088C77.9881 13.6678 77.8577 14.1823 77.5968 14.6317C77.3358 15.081 76.9733 15.4361 76.5096 15.697C76.0531 15.9507 75.5345 16.0775 74.9551 16.0775ZM74.9551 14.7295C75.2377 14.7295 75.491 14.6606 75.716 14.523C75.9405 14.378 76.1145 14.1823 76.2379 13.9359C76.3683 13.6822 76.4335 13.3996 76.4335 13.088C76.4335 12.7691 76.3683 12.4864 76.2379 12.24C76.1145 11.9863 75.9405 11.7907 75.716 11.653C75.491 11.508 75.2377 11.4356 74.9551 11.4356C74.6648 11.4356 74.4077 11.508 74.1832 11.653C73.9582 11.798 73.781 11.9936 73.6505 12.24C73.5201 12.4864 73.4581 12.7691 73.4657 13.088C73.4581 13.3996 73.5201 13.6822 73.6505 13.9359C73.781 14.1823 73.9582 14.378 74.1832 14.523C74.4077 14.6606 74.6648 14.7295 74.9551 14.7295ZM81.6501 16.0775C81.0989 16.0775 80.6064 15.9471 80.1716 15.6862C79.7367 15.4253 79.3921 15.0702 79.1388 14.6208C78.892 14.1714 78.7692 13.6605 78.7692 13.088C78.7692 12.5227 78.892 12.0154 79.1388 11.566C79.3921 11.1094 79.7367 10.7507 80.1716 10.4898C80.6064 10.2289 81.0989 10.0984 81.6501 10.0984C82.1643 10.0984 82.6355 10.1926 83.0633 10.3811C83.4905 10.5695 83.8243 10.8304 84.0634 11.1638L83.2155 12.1857C83.1139 12.048 82.9872 11.9248 82.835 11.8161C82.6828 11.7001 82.5159 11.6095 82.3349 11.5443C82.161 11.479 81.9795 11.4464 81.7914 11.4464C81.4941 11.4464 81.2293 11.5189 80.9978 11.6639C80.7728 11.8015 80.5956 11.9936 80.4651 12.24C80.3346 12.4864 80.2694 12.7691 80.2694 13.088C80.2694 13.3996 80.3346 13.6787 80.4651 13.9251C80.6026 14.1642 80.7874 14.3599 81.0195 14.5121C81.2511 14.6571 81.512 14.7295 81.8022 14.7295C81.9903 14.7295 82.1681 14.7041 82.3349 14.6534C82.5013 14.5954 82.6573 14.5121 82.8024 14.4034C82.9546 14.2947 83.0921 14.1642 83.2155 14.012L84.0526 15.0339C83.8058 15.3455 83.4655 15.5992 83.0307 15.7949C82.5958 15.9833 82.1355 16.0775 81.6501 16.0775ZM85.1718 15.9688V10.218H86.7155V15.9688H85.1718ZM85.9327 9.03304C85.636 9.03304 85.4039 8.96057 85.237 8.81562C85.0707 8.67067 84.9869 8.46412 84.9869 8.19596C84.9869 7.94955 85.0707 7.75025 85.237 7.59805C85.4109 7.43861 85.643 7.35889 85.9327 7.35889C86.2301 7.35889 86.4622 7.43498 86.6285 7.58718C86.7954 7.73213 86.8785 7.93506 86.8785 8.19596C86.8785 8.44963 86.7916 8.65255 86.6176 8.80475C86.4513 8.95694 86.223 9.03304 85.9327 9.03304ZM90.5171 16.0775C90.0388 16.0775 89.6072 15.9471 89.2234 15.6862C88.8391 15.4253 88.5347 15.0702 88.3103 14.6208C88.0852 14.1714 87.9733 13.6569 87.9733 13.0771C87.9733 12.4973 88.0852 11.9863 88.3103 11.5443C88.5418 11.0949 88.8538 10.7435 89.2452 10.4898C89.6365 10.2289 90.0823 10.0984 90.5823 10.0984C90.865 10.0984 91.1221 10.1419 91.3542 10.2289C91.5933 10.3086 91.7999 10.4209 91.9738 10.5659C92.1548 10.7108 92.307 10.8775 92.4304 11.0659C92.5533 11.2544 92.6402 11.4573 92.6913 11.6747L92.3652 11.6204V10.218H93.898V15.9688H92.3434V14.5882L92.6913 14.5556C92.6332 14.7585 92.5391 14.9506 92.4087 15.1317C92.2782 15.3129 92.1151 15.476 91.9195 15.6209C91.7309 15.7586 91.5172 15.871 91.2781 15.958C91.0389 16.0377 90.7851 16.0775 90.5171 16.0775ZM90.9411 14.7404C91.2308 14.7404 91.4846 14.6715 91.702 14.5338C91.9195 14.3962 92.0858 14.2041 92.2021 13.9577C92.325 13.704 92.3869 13.4105 92.3869 13.0771C92.3869 12.751 92.325 12.4647 92.2021 12.2183C92.0858 11.9719 91.9195 11.7798 91.702 11.6421C91.4846 11.4971 91.2308 11.4247 90.9411 11.4247C90.6584 11.4247 90.4084 11.4971 90.191 11.6421C89.9806 11.7798 89.8137 11.9719 89.6909 12.2183C89.5675 12.4647 89.5061 12.751 89.5061 13.0771C89.5061 13.4105 89.5675 13.704 89.6909 13.9577C89.8137 14.2041 89.9806 14.3962 90.191 14.5338C90.4084 14.6715 90.6584 14.7404 90.9411 14.7404ZM95.4564 15.9688V7.92419H97.0001V15.9688H95.4564Z" fill="currentColor"/>
</svg>
