<svg width="24" height="24" viewBox="0 0 24 24" fill="none" xmlns="http://www.w3.org/2000/svg">
<path fill-rule="evenodd" clip-rule="evenodd" d="M9.49959 7.24053C9.81704 7.55989 9.8155 8.07613 9.49614 8.39358L5.97185 11.8969L9.49614 15.4002C9.8155 15.7177 9.81704 16.2339 9.49959 16.5533C9.18213 16.8726 8.66589 16.8742 8.34653 16.5567L4.24053 12.4751C4.08657 12.3221 4 12.114 4 11.8969C4 11.6798 4.08657 11.4717 4.24053 11.3187L8.34653 7.23709C8.66589 6.91963 9.18213 6.92117 9.49959 7.24053Z" fill="currentColor"/>
<path fill-rule="evenodd" clip-rule="evenodd" d="M13.7723 7.23708C14.0916 6.91963 14.6079 6.92118 14.9253 7.24054L18.9824 11.3221C19.2985 11.6401 19.2985 12.1537 18.9824 12.4717L14.9253 16.5533C14.6079 16.8726 14.0916 16.8742 13.7723 16.5567C13.4529 16.2393 13.4514 15.723 13.7688 15.4037L17.2546 11.8969L13.7688 8.39013C13.4514 8.07076 13.4529 7.55453 13.7723 7.23708Z" fill="currentColor"/>
</svg>
