<svg width="40" height="40" viewBox="0 0 40 40" fill="none" xmlns="http://www.w3.org/2000/svg">
<mask id="mask0_3799_1158" style="mask-type:alpha" maskUnits="userSpaceOnUse" x="0" y="0" width="40" height="40">
<rect width="40" height="40" fill="currentColor"/>
</mask>
<g mask="url(#mask0_3799_1158)">
<path d="M6.66666 35V26.1111C6.66666 25.3472 6.93865 24.6933 7.48262 24.1493C8.02659 23.6053 8.68053 23.3333 9.44441 23.3333H30.5556C31.3195 23.3333 31.9734 23.6053 32.5174 24.1493C33.0613 24.6933 33.3333 25.3472 33.3333 26.1111V35H6.66666ZM15 21.6667C12.6944 21.6667 10.7292 20.8542 9.10416 19.2292C7.47916 17.6042 6.66666 15.6389 6.66666 13.3333C6.66666 11.0278 7.47916 9.0625 9.10416 7.4375C10.7292 5.8125 12.6944 5 15 5H25C27.3056 5 29.2708 5.8125 30.8958 7.4375C32.5208 9.0625 33.3333 11.0278 33.3333 13.3333C33.3333 15.6389 32.5208 17.6042 30.8958 19.2292C29.2708 20.8542 27.3056 21.6667 25 21.6667H15ZM15.0049 14.7222C15.3998 14.7222 15.7292 14.5886 15.993 14.3215C16.2569 14.0544 16.3889 13.7233 16.3889 13.3285C16.3889 12.9336 16.2553 12.6042 15.9882 12.3403C15.721 12.0764 15.39 11.9445 14.9951 11.9445C14.6002 11.9445 14.2708 12.078 14.007 12.3452C13.7431 12.6123 13.6111 12.9433 13.6111 13.3382C13.6111 13.7331 13.7447 14.0625 14.0118 14.3264C14.279 14.5903 14.61 14.7222 15.0049 14.7222ZM25.0049 14.7222C25.3998 14.7222 25.7292 14.5886 25.993 14.3215C26.2569 14.0544 26.3889 13.7233 26.3889 13.3285C26.3889 12.9336 26.2553 12.6042 25.9882 12.3403C25.721 12.0764 25.39 11.9445 24.9951 11.9445C24.6002 11.9445 24.2708 12.078 24.007 12.3452C23.7431 12.6123 23.6111 12.9433 23.6111 13.3382C23.6111 13.7331 23.7447 14.0625 24.0118 14.3264C24.279 14.5903 24.61 14.7222 25.0049 14.7222Z" fill="currentColor"/>
</g>
</svg>
