<svg width="30" height="35" viewBox="0 0 30 35" fill="currentColor" xmlns="http://www.w3.org/2000/svg">
<g filter="url(#filter0_i_1204_1406)">
<path d="M29.3124 21.4844L24.5936 15.8126C24.4399 13.9444 24.019 12.108 23.3436 10.3594C21.5311 5.64068 18.328 2.54693 16.5624 1.12505C16.122 0.765123 15.5714 0.567206 15.0026 0.564362C14.4339 0.561518 13.8814 0.75392 13.4374 1.10943C11.6561 2.5313 8.40613 5.62505 6.578 10.3438C5.87683 12.1286 5.45011 14.0093 5.31238 15.9219L0.687379 21.4844C0.442048 21.7774 0.266702 22.1225 0.174652 22.4934C0.0826013 22.8643 0.0762664 23.2513 0.156128 23.6251L2.09363 32.3126C2.18478 32.727 2.38055 33.1111 2.66227 33.4284C2.944 33.7457 3.30229 33.9855 3.703 34.1251C3.97481 34.2172 4.25975 34.2647 4.54675 34.2657C5.10922 34.2626 5.65421 34.0699 6.09363 33.7188L10.4374 30.2501H19.5624L23.9061 33.7188C24.3456 34.0699 24.8905 34.2626 25.453 34.2657C25.74 34.2647 26.0249 34.2172 26.2968 34.1251C26.6975 33.9855 27.0558 33.7457 27.3375 33.4284C27.6192 33.1111 27.815 32.727 27.9061 32.3126L29.8436 23.6251C29.9235 23.2513 29.9172 22.8643 29.8251 22.4934C29.7331 22.1225 29.5577 21.7774 29.3124 21.4844ZM4.53113 31.7657L2.60925 23.0782L5.40613 19.7188C5.77071 22.6459 6.7655 25.6355 8.3905 28.6876L4.53113 31.7657ZM14.9999 15.8751C14.629 15.8751 14.2665 15.7651 13.9582 15.5591C13.6498 15.353 13.4095 15.0602 13.2676 14.7176C13.1257 14.375 13.0886 13.998 13.1609 13.6343C13.2333 13.2705 13.4118 12.9365 13.6741 12.6742C13.9363 12.412 14.2704 12.2334 14.6341 12.1611C14.9978 12.0887 15.3748 12.1259 15.7174 12.2678C16.06 12.4097 16.3529 12.65 16.5589 12.9584C16.7649 13.2667 16.8749 13.6292 16.8749 14.0001C16.8749 14.4973 16.6773 14.9742 16.3257 15.3259C15.9741 15.6775 15.4972 15.8751 14.9999 15.8751ZM25.4686 31.7657L21.5936 28.6719C23.2186 25.5938 24.1874 22.5782 24.5311 19.6407L27.3905 23.0782L25.4686 31.7657Z" fill="currentColor"/>
</g>
<defs>
<filter id="filter0_i_1204_1406" x="0.100586" y="0.564331" width="29.7986" height="34.2013" filterUnits="userSpaceOnUse" color-interpolation-filters="sRGB">
<feFlood flood-opacity="0" result="BackgroundImageFix"/>
<feBlend mode="normal" in="SourceGraphic" in2="BackgroundImageFix" result="shape"/>
<feColorMatrix in="SourceAlpha" type="matrix" values="0 0 0 0 0 0 0 0 0 0 0 0 0 0 0 0 0 0 127 0" result="hardAlpha"/>
<feOffset dy="0.5"/>
<feGaussianBlur stdDeviation="1"/>
<feComposite in2="hardAlpha" operator="arithmetic" k2="-1" k3="1"/>
<feColorMatrix type="matrix" values="0 0 0 0 1 0 0 0 0 1 0 0 0 0 1 0 0 0 0.15 0"/>
<feBlend mode="normal" in2="shape" result="effect1_innerShadow_1204_1406"/>
</filter>
</defs>
</svg>
