<svg width="24" height="24" viewBox="0 0 24 24" fill="currentColor" xmlns="http://www.w3.org/2000/svg">
<path d="M13.5 20.25H10.5C10.3011 20.25 10.1103 20.329 9.96967 20.4697C9.82902 20.6103 9.75 20.8011 9.75 21C9.75 21.1989 9.82902 21.3897 9.96967 21.5303C10.1103 21.671 10.3011 21.75 10.5 21.75H13.5C13.6989 21.75 13.8897 21.671 14.0303 21.5303C14.171 21.3897 14.25 21.1989 14.25 21C14.25 20.8011 14.171 20.6103 14.0303 20.4697C13.8897 20.329 13.6989 20.25 13.5 20.25Z" fill="currentColor"/>
<g filter="url(#filter0_i_1161_17789)">
<path d="M20.5875 13.4905L17.7562 10.0874C17.664 8.96653 17.4115 7.86467 17.0062 6.81553C15.9187 3.98428 13.9969 2.12803 12.9375 1.27491C12.6733 1.05895 12.3429 0.940202 12.0017 0.938495C11.6604 0.936789 11.3289 1.05223 11.0625 1.26553C9.99375 2.11866 8.04375 3.97491 6.94688 6.80616C6.52617 7.87703 6.27014 9.00546 6.1875 10.153L3.4125 13.4905C3.2653 13.6663 3.16009 13.8734 3.10486 14.0959C3.04963 14.3185 3.04583 14.5507 3.09375 14.7749L4.25625 19.9874C4.31094 20.2361 4.4284 20.4665 4.59744 20.6569C4.76647 20.8473 4.98145 20.9912 5.22188 21.0749C5.38496 21.1302 5.55592 21.1587 5.72813 21.1593C6.0656 21.1574 6.3926 21.0418 6.65625 20.8312L9.2625 18.7499H14.7375L17.3438 20.8312C17.6074 21.0418 17.9344 21.1574 18.2719 21.1593C18.4441 21.1587 18.615 21.1302 18.7781 21.0749C19.0186 20.9912 19.2335 20.8473 19.4026 20.6569C19.5716 20.4665 19.6891 20.2361 19.7438 19.9874L20.9062 14.7749C20.9542 14.5507 20.9504 14.3185 20.8951 14.0959C20.8399 13.8734 20.7347 13.6663 20.5875 13.4905ZM5.71875 19.6593L4.56563 14.4468L6.24375 12.4312C6.4625 14.1874 7.05938 15.9812 8.03438 17.8124L5.71875 19.6593ZM12 10.1249C11.7775 10.1249 11.56 10.0589 11.375 9.93531C11.19 9.8117 11.0458 9.636 10.9606 9.43043C10.8755 9.22486 10.8532 8.99866 10.8966 8.78043C10.94 8.5622 11.0472 8.36175 11.2045 8.20441C11.3618 8.04708 11.5623 7.93993 11.7805 7.89653C11.9988 7.85312 12.225 7.8754 12.4305 7.96055C12.6361 8.04569 12.8118 8.18989 12.9354 8.37489C13.059 8.5599 13.125 8.77741 13.125 8.99991C13.125 9.29828 13.0065 9.58443 12.7955 9.79541C12.5845 10.0064 12.2984 10.1249 12 10.1249ZM18.2812 19.6593L15.9562 17.803C16.9312 15.9562 17.5125 14.1468 17.7188 12.3843L19.4344 14.4468L18.2812 19.6593Z" fill="currentColor"/>
</g>
<defs>
<filter id="filter0_i_1161_17789" x="3.06042" y="0.938477" width="17.8792" height="20.7207" filterUnits="userSpaceOnUse" color-interpolation-filters="sRGB">
<feFlood flood-opacity="0" result="BackgroundImageFix"/>
<feBlend mode="normal" in="SourceGraphic" in2="BackgroundImageFix" result="shape"/>
<feColorMatrix in="SourceAlpha" type="matrix" values="0 0 0 0 0 0 0 0 0 0 0 0 0 0 0 0 0 0 127 0" result="hardAlpha"/>
<feOffset dy="0.5"/>
<feGaussianBlur stdDeviation="1"/>
<feComposite in2="hardAlpha" operator="arithmetic" k2="-1" k3="1"/>
<feColorMatrix type="matrix" values="0 0 0 0 1 0 0 0 0 1 0 0 0 0 1 0 0 0 0.15 0"/>
<feBlend mode="normal" in2="shape" result="effect1_innerShadow_1161_17789"/>
</filter>
</defs>
</svg>
