<svg width="12" height="12" viewBox="0 0 12 12" fill="currentColor" xmlns="http://www.w3.org/2000/svg">
<path d="M7.11053 11.2811C6.94269 11.4486 6.7347 11.5323 6.48658 11.5323C6.23846 11.5323 6.03064 11.4486 5.86312 11.2811L0.729782 6.14773C0.645276 6.06322 0.578907 5.96595 0.530675 5.85591C0.482434 5.74589 0.458313 5.62852 0.458313 5.50383V1.33299C0.458313 1.09443 0.544505 0.88896 0.71689 0.716585C0.889265 0.5442 1.09473 0.458008 1.3333 0.458008H5.50413C5.62453 0.458008 5.73986 0.481506 5.85012 0.528504C5.96039 0.575491 6.05596 0.638744 6.13682 0.718262L11.2702 5.86058C11.4414 6.03184 11.528 6.24104 11.5298 6.4882C11.5317 6.73536 11.4489 6.9427 11.2814 7.11022L7.11053 11.2811ZM2.79098 3.52048C2.99333 3.52048 3.16556 3.44965 3.30765 3.308C3.44974 3.16635 3.52078 2.99434 3.52078 2.79198C3.52078 2.58962 3.44996 2.4174 3.3083 2.27531C3.16665 2.13322 2.99465 2.06217 2.79229 2.06217C2.58993 2.06217 2.41771 2.133 2.27562 2.27465C2.13353 2.41631 2.06248 2.58831 2.06248 2.79067C2.06248 2.99303 2.13331 3.16525 2.27496 3.30734C2.41661 3.44943 2.58862 3.52048 2.79098 3.52048Z" fill="currentColor"/>
</svg>
