<svg width="30" height="30" viewBox="0 0 30 30" fill="none" xmlns="http://www.w3.org/2000/svg">
<path d="M24.375 4.6875H5.625C5.12772 4.6875 4.65081 4.88504 4.29918 5.23667C3.94755 5.58831 3.75 6.06522 3.75 6.5625V13.4414C3.75 23.918 12.6328 27.3984 14.4141 27.9844C14.7947 28.1096 15.2053 28.1096 15.5859 27.9844C17.3672 27.3984 26.25 23.918 26.25 13.4414V6.5625C26.25 6.06522 26.0525 5.58831 25.7008 5.23667C25.3492 4.88504 24.8723 4.6875 24.375 4.6875ZM20.8008 12.8672L13.9336 19.4297C13.7561 19.5967 13.5211 19.689 13.2773 19.6875C13.0372 19.6884 12.8061 19.596 12.6328 19.4297L9.19922 16.1484C9.10399 16.0653 9.02653 15.9639 8.97152 15.8501C8.91651 15.7363 8.88507 15.6126 8.8791 15.4863C8.87312 15.3601 8.89274 15.2339 8.93676 15.1154C8.98079 14.997 9.04831 14.8886 9.13528 14.7969C9.22224 14.7052 9.32685 14.632 9.44282 14.5818C9.55879 14.5315 9.68372 14.5053 9.8101 14.5045C9.93649 14.5038 10.0617 14.5286 10.1783 14.5775C10.2948 14.6264 10.4003 14.6984 10.4883 14.7891L13.2773 17.4492L19.5117 11.5078C19.694 11.3488 19.9307 11.2664 20.1724 11.2778C20.414 11.2892 20.6419 11.3936 20.8083 11.5692C20.9748 11.7447 21.0669 11.9778 21.0655 12.2197C21.0641 12.4616 20.9693 12.6936 20.8008 12.8672Z" fill="currentColor"/>
</svg>
