<svg width="30" height="30" viewBox="0 0 30 30" fill="none" xmlns="http://www.w3.org/2000/svg">
<path d="M26.25 5.625H3.75C3.25272 5.625 2.77581 5.82254 2.42417 6.17417C2.07254 6.52581 1.875 7.00272 1.875 7.5V22.5C1.875 22.9973 2.07254 23.4742 2.42417 23.8258C2.77581 24.1775 3.25272 24.375 3.75 24.375H26.25C26.7473 24.375 27.2242 24.1775 27.5758 23.8258C27.9275 23.4742 28.125 22.9973 28.125 22.5V7.5C28.125 7.00272 27.9275 6.52581 27.5758 6.17417C27.2242 5.82254 26.7473 5.625 26.25 5.625ZM15.9375 20.625H14.0625C13.8139 20.625 13.5754 20.5262 13.3996 20.3504C13.2238 20.1746 13.125 19.9361 13.125 19.6875C13.125 19.4389 13.2238 19.2004 13.3996 19.0246C13.5754 18.8488 13.8139 18.75 14.0625 18.75H15.9375C16.1861 18.75 16.4246 18.8488 16.6004 19.0246C16.7762 19.2004 16.875 19.4389 16.875 19.6875C16.875 19.9361 16.7762 20.1746 16.6004 20.3504C16.4246 20.5262 16.1861 20.625 15.9375 20.625ZM23.4375 20.625H19.6875C19.4389 20.625 19.2004 20.5262 19.0246 20.3504C18.8488 20.1746 18.75 19.9361 18.75 19.6875C18.75 19.4389 18.8488 19.2004 19.0246 19.0246C19.2004 18.8488 19.4389 18.75 19.6875 18.75H23.4375C23.6861 18.75 23.9246 18.8488 24.1004 19.0246C24.2762 19.2004 24.375 19.4389 24.375 19.6875C24.375 19.9361 24.2762 20.1746 24.1004 20.3504C23.9246 20.5262 23.6861 20.625 23.4375 20.625ZM3.75 10.3125V7.5H26.25V10.3125H3.75Z" fill="currentColor"/>
</svg>
