<svg width="16" height="16" viewBox="0 0 16 16" fill="currentColor" xmlns="http://www.w3.org/2000/svg">
<mask id="mask0_1909_46136" style="mask-type:alpha" maskUnits="userSpaceOnUse" x="0" y="0" width="16" height="16">
<rect width="16" height="16" fill="currentColor"/>
</mask>
<g mask="url(#mask0_1909_46136)">
<path d="M4.20513 15.0001C3.86838 15.0001 3.58333 14.8835 3.35 14.6501C3.11667 14.4168 3 14.1317 3 13.795V6.87196C3 6.5352 3.11667 6.25016 3.35 6.01682C3.58333 5.78349 3.86838 5.66682 4.20513 5.66682H5.91023V6.66681H4.20513C4.15384 6.66681 4.10683 6.68817 4.06408 6.73091C4.02135 6.77365 3.99998 6.82067 3.99998 6.87196V13.795C3.99998 13.8463 4.02135 13.8933 4.06408 13.936C4.10683 13.9788 4.15384 14.0001 4.20513 14.0001H11.7948C11.8461 14.0001 11.8931 13.9788 11.9359 13.936C11.9786 13.8933 12 13.8463 12 13.795V6.87196C12 6.82067 11.9786 6.77365 11.9359 6.73091C11.8931 6.68817 11.8461 6.66681 11.7948 6.66681H10.0897V5.66682H11.7948C12.1316 5.66682 12.4166 5.78349 12.65 6.01682C12.8833 6.25016 13 6.5352 13 6.87196V13.795C13 14.1317 12.8833 14.4168 12.65 14.6501C12.4166 14.8835 12.1316 15.0001 11.7948 15.0001H4.20513ZM7.5 10.5001V3.14629L6.26665 4.37964L5.5641 3.66682L7.99998 1.23096L10.4359 3.66682L9.73332 4.37964L8.49997 3.14629V10.5001H7.5Z" fill="currentColor"/>
</g>
</svg>
