<svg width="30" height="30" viewBox="0 0 30 30" fill="none" xmlns="http://www.w3.org/2000/svg">
<path d="M6.96536 15.8641C6.97013 15.918 6.96087 15.9722 6.93848 16.0215C6.91608 16.0708 6.88132 16.1135 6.83756 16.1453C6.7938 16.1772 6.74255 16.1972 6.68877 16.2034C6.63499 16.2096 6.58053 16.2018 6.53067 16.1807C4.92479 15.6665 3.52376 14.6555 2.52971 13.2935C1.53566 11.9315 1 10.2889 1 8.60273C1 6.91655 1.53566 5.27396 2.52971 3.91195C3.52376 2.54993 4.92479 1.53892 6.53067 1.02477C6.58053 1.00369 6.63499 0.995865 6.68877 1.00206C6.74255 1.00826 6.7938 1.02827 6.83756 1.06014C6.88132 1.09201 6.91608 1.13466 6.93848 1.18394C6.96087 1.23322 6.97013 1.28746 6.96536 1.34138V1.95884C6.96166 2.04816 6.933 2.13466 6.88263 2.20852C6.83226 2.28239 6.76221 2.34066 6.68041 2.37673C5.4038 2.84286 4.30132 3.69015 3.52237 4.80382C2.74342 5.91748 2.32564 7.24368 2.32564 8.60274C2.32564 9.96179 2.74342 11.288 3.52237 12.4017C4.30132 13.5153 5.4038 14.3626 6.68041 14.8287C6.76221 14.8648 6.83226 14.9231 6.88263 14.9969C6.933 15.0708 6.96166 15.1573 6.96536 15.2466V15.8641Z" fill="currentColor"/>
<path d="M9.61672 13.5735C9.61672 13.6614 9.58181 13.7457 9.51966 13.8078C9.45751 13.87 9.37321 13.9049 9.28532 13.9049H8.6225C8.5346 13.9049 8.45031 13.87 8.38816 13.8078C8.326 13.7457 8.29109 13.6614 8.29109 13.5735V12.5271C7.71521 12.505 7.16523 12.2821 6.73655 11.8969C6.30787 11.5117 6.02753 10.9886 5.94417 10.4184C5.93699 10.374 5.93954 10.3287 5.95165 10.2854C5.96376 10.2421 5.98515 10.202 6.01432 10.1679C6.04349 10.1337 6.07975 10.1063 6.12058 10.0875C6.1614 10.0688 6.20582 10.0592 6.25075 10.0593H7.00674C7.08354 10.06 7.15778 10.087 7.21697 10.136C7.27616 10.1849 7.3167 10.2527 7.33178 10.3281C7.47223 10.9834 7.853 11.4898 9.01018 11.4898C9.86594 11.4898 10.473 11.0129 10.473 10.2978C10.473 9.58248 10.1153 9.31178 8.85829 9.10588C7.00547 8.85653 6.12765 8.29304 6.12765 6.84102C6.14907 6.27222 6.3833 5.7322 6.78396 5.3279C7.18463 4.92359 7.7225 4.68449 8.29109 4.65793V3.63121C8.29109 3.54332 8.326 3.45902 8.38816 3.39687C8.45031 3.33472 8.5346 3.2998 8.6225 3.2998H9.28532C9.37321 3.2998 9.45751 3.33472 9.51966 3.39687C9.58181 3.45902 9.61672 3.54332 9.61672 3.63121V4.68708C10.0951 4.73756 10.5446 4.94042 10.899 5.26574C11.2533 5.59106 11.4938 6.02163 11.5849 6.49397C11.5939 6.53885 11.5927 6.58517 11.5816 6.62955C11.5704 6.67394 11.5495 6.71528 11.5204 6.75058C11.4913 6.78588 11.4546 6.81425 11.4132 6.83362C11.3717 6.853 11.3264 6.8629 11.2807 6.8626H10.5835C10.5112 6.86192 10.4411 6.83782 10.3837 6.79393C10.3263 6.75004 10.2847 6.68871 10.2651 6.61915C10.0765 5.9802 9.61984 5.70309 8.82589 5.70309C7.94808 5.70309 7.49308 6.1259 7.49308 6.72175C7.49308 7.35023 7.75299 7.66459 9.0966 7.85969C10.9172 8.10879 11.8601 8.62902 11.8601 10.1785C11.8414 10.7776 11.602 11.3487 11.188 11.782C10.7739 12.2154 10.2143 12.4805 9.61672 12.5265V13.5735Z" fill="currentColor"/>
<path d="M11.3769 16.1807C11.327 16.2018 11.2726 16.2096 11.2188 16.2034C11.165 16.1972 11.1138 16.1772 11.07 16.1453C11.0262 16.1135 10.9915 16.0708 10.9691 16.0215C10.9467 15.9722 10.9374 15.918 10.9422 15.8641V15.2466C10.9414 15.1562 10.9682 15.0677 11.0192 14.993C11.0701 14.9183 11.1427 14.861 11.2271 14.8287C12.5038 14.3626 13.6062 13.5153 14.3852 12.4017C15.1641 11.288 15.5819 9.96179 15.5819 8.60274C15.5819 7.24368 15.1641 5.91748 14.3852 4.80382C13.6062 3.69015 12.5038 2.84286 11.2271 2.37673C11.1453 2.34066 11.0753 2.28238 11.0249 2.20852C10.9746 2.13465 10.9459 2.04816 10.9422 1.95883V1.34138C10.9374 1.28746 10.9467 1.23322 10.9691 1.18394C10.9915 1.13466 11.0262 1.09201 11.07 1.06014C11.1138 1.02827 11.165 1.00826 11.2188 1.00206C11.2726 0.995865 11.327 1.00369 11.3769 1.02477C12.9828 1.53892 14.3838 2.54993 15.3779 3.91195C16.3719 5.27396 16.9076 6.91655 16.9076 8.60273C16.9076 10.2889 16.3719 11.9315 15.3779 13.2935C14.3838 14.6555 12.9828 15.6665 11.3769 16.1807Z" fill="currentColor"/>
<path fill-rule="evenodd" clip-rule="evenodd" d="M27.9572 16V18.1271H23.4849V19.6019C26.6259 19.7595 28.9825 20.4068 29 21.1826L28.9999 22.8C28.9824 23.5759 26.6259 24.2231 23.4849 24.3807V28H20.5152V24.3807C17.3741 24.2231 15.0175 23.5759 15 22.8L15.0001 21.1826C15.0176 20.4068 17.3741 19.7595 20.5152 19.6019V18.1271H16.0428V16H27.9572ZM22 23.2696C25.3521 23.2696 28.1538 22.7222 28.8395 21.9913C28.258 21.3715 26.1549 20.8837 23.4849 20.7497V22.2938C23.0063 22.3178 22.5095 22.3304 22 22.3304C21.4905 22.3304 20.9937 22.3178 20.5152 22.2938V20.7497C17.8451 20.8837 15.742 21.3715 15.1605 21.9913C15.8462 22.7222 18.6479 23.2696 22 23.2696Z" fill="currentColor"/>
</svg>
