<svg width="35" height="35" viewBox="0 0 35 35" fill="none" xmlns="http://www.w3.org/2000/svg">
<path d="M29.5312 5.46875H5.46875C4.88859 5.46875 4.33219 5.69922 3.92195 6.10945C3.51172 6.51969 3.28125 7.07609 3.28125 7.65625V27.3438C3.28125 27.9239 3.51172 28.4803 3.92195 28.8905C4.33219 29.3008 4.88859 29.5312 5.46875 29.5312H29.5312C30.1114 29.5312 30.6678 29.3008 31.078 28.8905C31.4883 28.4803 31.7188 27.9239 31.7188 27.3438V7.65625C31.7188 7.07609 31.4883 6.51969 31.078 6.10945C30.6678 5.69922 30.1114 5.46875 29.5312 5.46875ZM10.6176 23.7426C10.4123 23.9478 10.134 24.0631 9.84375 24.0631C9.55351 24.0631 9.27515 23.9478 9.06992 23.7426C8.86469 23.5373 8.74939 23.259 8.74939 22.9688C8.74939 22.6785 8.86469 22.4002 9.06992 22.1949L13.7662 17.5L9.06992 12.8051C8.86469 12.5998 8.74939 12.3215 8.74939 12.0312C8.74939 11.741 8.86469 11.4627 9.06992 11.2574C9.27515 11.0522 9.55351 10.9369 9.84375 10.9369C10.134 10.9369 10.4123 11.0522 10.6176 11.2574L16.0863 16.7262C16.188 16.8278 16.2687 16.9484 16.3237 17.0812C16.3788 17.2139 16.4071 17.3563 16.4071 17.5C16.4071 17.6437 16.3788 17.7861 16.3237 17.9188C16.2687 18.0516 16.188 18.1722 16.0863 18.2738L10.6176 23.7426ZM26.25 24.0625H17.5C17.2099 24.0625 16.9317 23.9473 16.7266 23.7421C16.5215 23.537 16.4062 23.2588 16.4062 22.9688C16.4062 22.6787 16.5215 22.4005 16.7266 22.1954C16.9317 21.9902 17.2099 21.875 17.5 21.875H26.25C26.5401 21.875 26.8183 21.9902 27.0234 22.1954C27.2285 22.4005 27.3438 22.6787 27.3438 22.9688C27.3438 23.2588 27.2285 23.537 27.0234 23.7421C26.8183 23.9473 26.5401 24.0625 26.25 24.0625Z" fill="currentColor"/>
</svg>
