<svg width="18" height="18" viewBox="0 0 18 18" fill="currentColor" xmlns="http://www.w3.org/2000/svg">
<path d="M7.47402 14.1481C7.4776 14.1885 7.47065 14.2292 7.45386 14.2661C7.43706 14.3031 7.41099 14.3351 7.37817 14.359C7.34535 14.3829 7.30691 14.3979 7.26658 14.4025C7.22625 14.4072 7.1854 14.4013 7.148 14.3855C5.94359 13.9999 4.89282 13.2416 4.14728 12.2201C3.40175 11.1986 3 9.96668 3 8.70205C3 7.43741 3.40175 6.20547 4.14728 5.18396C4.89282 4.16245 5.94359 3.40419 7.148 3.01858C7.1854 3.00277 7.22625 2.9969 7.26658 3.00155C7.30691 3.0062 7.34535 3.0212 7.37817 3.0451C7.41099 3.06901 7.43706 3.10099 7.45386 3.13796C7.47065 3.17492 7.4776 3.2156 7.47402 3.25604V3.71913C7.47124 3.78612 7.44975 3.851 7.41197 3.90639C7.3742 3.96179 7.32166 4.00549 7.26031 4.03255C6.30285 4.38214 5.47599 5.01761 4.89178 5.85286C4.30756 6.68811 3.99423 7.68276 3.99423 8.70205C3.99423 9.72134 4.30756 10.716 4.89178 11.5512C5.47599 12.3865 6.30285 13.022 7.26031 13.3716C7.32166 13.3986 7.3742 13.4423 7.41197 13.4977C7.44975 13.5531 7.47124 13.618 7.47402 13.685V14.1481Z" fill="currentColor"/>
<path d="M9.46248 12.4304C9.46248 12.4963 9.4363 12.5595 9.38968 12.6061C9.34307 12.6527 9.27985 12.6789 9.21393 12.6789H8.71681C8.65089 12.6789 8.58767 12.6527 8.54106 12.6061C8.49444 12.5595 8.46826 12.4963 8.46826 12.4304V11.6456C8.03635 11.629 7.62386 11.4618 7.30235 11.1729C6.98084 10.884 6.77059 10.4917 6.70807 10.064C6.70268 10.0308 6.70459 9.99674 6.71368 9.9643C6.72276 9.93185 6.7388 9.90177 6.76068 9.87615C6.78256 9.85052 6.80975 9.82996 6.84037 9.8159C6.87099 9.80184 6.90431 9.79462 6.938 9.79472H7.50499C7.5626 9.79522 7.61827 9.81552 7.66266 9.85223C7.70706 9.88894 7.73746 9.9398 7.74877 9.99629C7.85411 10.4878 8.13969 10.8676 9.00757 10.8676C9.6494 10.8676 10.1047 10.51 10.1047 9.97362C10.1047 9.43711 9.83638 9.23408 8.89366 9.07966C7.50404 8.89264 6.84568 8.47002 6.84568 7.38101C6.86174 6.95441 7.03741 6.5494 7.33791 6.24617C7.63841 5.94294 8.04182 5.76361 8.46826 5.74369V4.97365C8.46826 4.90773 8.49444 4.84451 8.54106 4.7979C8.58767 4.75128 8.65089 4.7251 8.71681 4.7251H9.21393C9.27985 4.7251 9.34307 4.75128 9.38968 4.7979C9.4363 4.84451 9.46248 4.90773 9.46248 4.97365V5.76556C9.82128 5.80342 10.1584 5.95556 10.4242 6.19955C10.69 6.44354 10.8703 6.76647 10.9386 7.12072C10.9453 7.15438 10.9445 7.18912 10.9361 7.22241C10.9278 7.2557 10.9121 7.2867 10.8902 7.31318C10.8684 7.33965 10.8409 7.36093 10.8098 7.37546C10.7787 7.38999 10.7448 7.39742 10.7104 7.3972H10.1876C10.1334 7.39668 10.0808 7.37861 10.0377 7.34569C9.99468 7.31277 9.96346 7.26678 9.94875 7.21461C9.80729 6.73539 9.46482 6.52756 8.86936 6.52756C8.211 6.52756 7.86975 6.84467 7.86975 7.29156C7.86975 7.76292 8.06468 7.99868 9.07239 8.14501C10.4379 8.33184 11.145 8.72201 11.145 9.88414C11.131 10.3335 10.9515 10.7618 10.6409 11.0868C10.3304 11.4118 9.9107 11.6107 9.46248 11.6451V12.4304Z" fill="currentColor"/>
<path d="M10.7825 14.3855C10.7451 14.4013 10.7043 14.4072 10.6639 14.4025C10.6236 14.3979 10.5852 14.3829 10.5523 14.359C10.5195 14.3351 10.4934 14.3031 10.4766 14.2661C10.4599 14.2292 10.4529 14.1885 10.4565 14.1481V13.685C10.4559 13.6172 10.476 13.5508 10.5142 13.4948C10.5524 13.4387 10.6068 13.3957 10.6702 13.3716C11.6277 13.022 12.4545 12.3865 13.0387 11.5512C13.6229 10.716 13.9363 9.72134 13.9363 8.70205C13.9363 7.68276 13.6229 6.68811 13.0387 5.85286C12.4545 5.01761 11.6277 4.38214 10.6702 4.03255C10.6088 4.00549 10.5563 3.96179 10.5185 3.90639C10.4808 3.85099 10.4593 3.78612 10.4565 3.71912V3.25604C10.4529 3.2156 10.4599 3.17492 10.4766 3.13796C10.4934 3.10099 10.5195 3.06901 10.5523 3.0451C10.5852 3.0212 10.6236 3.0062 10.6639 3.00155C10.7043 2.9969 10.7451 3.00277 10.7825 3.01858C11.9869 3.40419 13.0377 4.16245 13.7832 5.18396C14.5288 6.20547 14.9305 7.43741 14.9305 8.70205C14.9305 9.96668 14.5288 11.1986 13.7832 12.2201C13.0377 13.2416 11.9869 13.9999 10.7825 14.3855Z" fill="currentColor"/>
</svg>
