<svg width="24" height="24" viewBox="0 0 24 24" fill="currentColor" xmlns="http://www.w3.org/2000/svg">
<path fill-rule="evenodd" clip-rule="evenodd" d="M17.9572 6V8.12708H13.4849V9.60186C16.6259 9.75946 18.9825 10.4068 19 11.1826L18.9999 12.8C18.9824 13.5759 16.6259 14.2231 13.4849 14.3807V18H10.5152V14.3807C7.37411 14.2231 5.01749 13.5759 5 12.8L5.00012 11.1826C5.01759 10.4068 7.37411 9.75946 10.5152 9.60186V8.12708H6.04284V6H17.9572ZM12 13.2696C15.3521 13.2696 18.1538 12.7222 18.8395 11.9913C18.258 11.3715 16.1549 10.8837 13.4849 10.7497V12.2938C13.0063 12.3178 12.5095 12.3304 12 12.3304C11.4905 12.3304 10.9937 12.3178 10.5152 12.2938V10.7497C7.84511 10.8837 5.74197 11.3715 5.16051 11.9913C5.84619 12.7222 8.64794 13.2696 12 13.2696Z" fill="currentColor"/>
</svg>
