<svg width="40" height="40" viewBox="0 0 40 40" fill="none" xmlns="http://www.w3.org/2000/svg">
<mask id="mask0_3799_1146" style="mask-type:alpha" maskUnits="userSpaceOnUse" x="0" y="0" width="40" height="40">
<rect width="40" height="40" fill="currentColor"/>
</mask>
<g mask="url(#mask0_3799_1146)">
<path d="M8.44021 34.1666C7.73365 34.1666 7.12254 33.9116 6.60687 33.4017C6.09121 32.8917 5.83337 32.2777 5.83337 31.5598V8.44021C5.83337 7.73365 6.09121 7.12254 6.60687 6.60688C7.12254 6.09121 7.73365 5.83337 8.44021 5.83337H31.5598C32.2777 5.83337 32.8917 6.09121 33.4017 6.60688C33.9116 7.12254 34.1666 7.73365 34.1666 8.44021V10.6882H22.5406C21.0727 10.6882 19.8753 11.1499 18.9483 12.0733C18.0213 12.9967 17.5578 14.1902 17.5578 15.6539V24.3632C17.5578 25.8268 18.0213 27.0204 18.9483 27.9438C19.8753 28.8672 21.0727 29.3289 22.5406 29.3289H34.1666V31.5598C34.1666 32.2777 33.9116 32.8917 33.4017 33.4017C32.8917 33.9116 32.2777 34.1666 31.5598 34.1666H8.44021ZM22.5406 27.235C21.6945 27.235 21.0015 26.9668 20.4616 26.4305C19.9217 25.8942 19.6518 25.2051 19.6518 24.3632V15.6539C19.6518 14.8006 19.9217 14.1087 20.4616 13.578C21.0015 13.0474 21.6945 12.7821 22.5406 12.7821H32.9615C33.8148 12.7821 34.5096 13.0474 35.0459 13.578C35.5822 14.1087 35.8504 14.8006 35.8504 15.6539V24.3632C35.8504 25.2051 35.5822 25.8942 35.0459 26.4305C34.5096 26.9668 33.8148 27.235 32.9615 27.235H22.5406ZM26.9145 22.579C27.6182 22.579 28.224 22.3251 28.7318 21.8173C29.2397 21.3095 29.4936 20.698 29.4936 19.9829C29.4936 19.2721 29.2397 18.6674 28.7318 18.1688C28.224 17.6702 27.6182 17.421 26.9145 17.421C26.2037 17.421 25.5944 17.6702 25.0865 18.1688C24.5787 18.6674 24.3248 19.2721 24.3248 19.9829C24.3248 20.698 24.5787 21.3095 25.0865 21.8173C25.5944 22.3251 26.2037 22.579 26.9145 22.579Z" fill="currentColor"/>
</g>
</svg>
