<svg width="24" height="24" fill="currentColor" viewBox="0 0 24 24" fill="none" xmlns="http://www.w3.org/2000/svg">
<path d="M12 4C7.58877 4 4 7.58877 4 12C4 16.4112 7.58877 20 12 20C16.4112 20 20 16.4112 20 12C20 7.58877 16.4112 4 12 4ZM16.237 11.5016C16.2084 10.5689 16.0867 9.64144 15.8737 8.73297H18.211C18.6631 9.59088 18.9304 10.5341 18.9956 11.5016H16.237ZM18.9956 12.4866C18.9319 13.4537 18.6666 14.3968 18.2167 15.2553H15.879C16.0903 14.3466 16.2102 13.4191 16.237 12.4866H18.9956ZM12.4937 18.9242V16.2406H14.5763C14.0649 17.6995 13.3289 18.648 12.4923 18.9242H12.4937ZM12.4937 7.74763V5.06979C13.3315 5.34596 14.0662 6.29242 14.576 7.74763H12.4937ZM15.5992 7.74763C15.2938 6.83067 14.884 6.02664 14.4084 5.40863C15.6655 5.87332 16.7655 6.68422 17.5812 7.74763H15.5992ZM15.2235 12.4866C15.1987 13.4193 15.0786 14.347 14.8652 15.2553H12.4927V12.4866H15.2235ZM12.4933 11.5016V8.73297H14.8649C15.071 9.58324 15.1913 10.5143 15.2231 11.5016H12.4933ZM17.593 16.2406C16.7767 17.308 15.674 18.1215 14.4134 18.5867C14.8903 17.966 15.3002 17.16 15.6049 16.2406H17.593ZM11.509 7.11588V7.11889C11.509 7.32981 11.5084 7.53939 11.5073 7.74763H9.37813C9.89057 6.28806 10.6587 5.31345 11.499 5.05404C11.5134 5.72568 11.511 6.43217 11.509 7.11588ZM11.507 16.2406V18.9403C10.6628 18.6842 9.89158 17.7072 9.3778 16.2406H11.507ZM6.42011 7.74763C7.23571 6.68407 8.33574 5.87314 9.59296 5.40863C9.11705 6.02698 8.70716 6.831 8.40184 7.74763H6.42011ZM8.39749 16.2406C8.7018 17.1589 9.11169 17.965 9.58894 18.5867C8.32821 18.1215 7.22548 17.308 6.40905 16.2406H8.39749ZM8.73264 11.5016C8.76615 10.514 8.88546 9.58291 9.09124 8.73297H11.5093V11.5016H8.73264ZM11.5097 12.4866V15.2553H9.08923C8.87555 14.3471 8.75539 13.4193 8.73063 12.4866H11.5097ZM8.1287 8.73297C7.91531 9.64139 7.79349 10.5689 7.76506 11.5016H5.00679C5.07183 10.5341 5.33899 9.5909 5.79104 8.73297H8.1287ZM7.76506 12.4866C7.79171 13.4192 7.91162 14.3467 8.123 15.2553H5.78333C5.33339 14.3969 5.06807 13.4538 5.00444 12.4866H7.76506Z"/>
</svg>
