<svg width="24" height="24" viewBox="0 0 24 24" fill="none" xmlns="http://www.w3.org/2000/svg">
<path d="M16.8263 9.89307H15.5299V5.102C15.5312 4.62982 15.3667 4.17102 15.0629 3.79993C14.7591 3.42885 14.3338 3.16722 13.856 3.05744C13.3781 2.94766 12.8757 2.99616 12.4301 3.19507C11.9846 3.39399 11.6219 3.73167 11.401 4.15341C11.18 4.57515 11.1137 5.05623 11.2127 5.51872C11.3118 5.98121 11.5704 6.39801 11.9468 6.70158C12.3231 7.00515 12.795 7.17772 13.2861 7.19132C13.7772 7.20492 14.2587 7.05876 14.6525 6.77651V9.89307H9.64702C9.36147 9.89307 9.07872 9.94714 8.81492 10.0522C8.55112 10.1572 8.31143 10.3112 8.10957 10.5053C7.9077 10.6994 7.7476 10.9299 7.63842 11.1834C7.52923 11.437 7.47311 11.7088 7.47324 11.9833C7.47324 11.998 7.47324 12.0138 7.47324 12.0286V16.8196H6.17574C5.7464 16.8195 5.3266 16.9414 4.96925 17.1702C4.61191 17.3989 4.33301 17.7242 4.16769 18.105C4.00237 18.4858 3.95803 18.9052 4.04026 19.3102C4.1225 19.7152 4.32762 20.0877 4.62978 20.3808C4.93195 20.674 5.31764 20.8746 5.73825 20.9575C6.15885 21.0403 6.59556 21.0016 6.99334 20.8463C7.39111 20.691 7.73216 20.426 7.9735 20.0847C8.21484 19.7435 8.34567 19.3412 8.34952 18.9285V17.6628H11.6189C11.3275 18.04 11.1771 18.5007 11.192 18.9703C11.2068 19.4399 11.3861 19.8909 11.7008 20.2505C12.0154 20.61 12.4471 20.857 12.926 20.9514C13.4048 21.0459 13.9028 20.9824 14.3394 20.7711C14.776 20.5598 15.1257 20.2131 15.3318 19.7872C15.538 19.3612 15.5886 18.8808 15.4755 18.4238C15.3623 17.9667 15.092 17.5597 14.7084 17.2686C14.3247 16.9775 13.85 16.8193 13.3612 16.8196H8.34952V13.6578C8.76775 13.9584 9.28468 14.104 9.80558 14.0681C10.3265 14.0322 10.8165 13.817 11.1857 13.4621C11.555 13.1072 11.7789 12.6363 11.8163 12.1356C11.8536 11.635 11.7021 11.1382 11.3893 10.7362H14.6525V12.0059C14.6568 12.4183 14.7879 12.8202 15.0294 13.161C15.2709 13.5019 15.6119 13.7664 16.0095 13.9214C16.4071 14.0763 16.8436 14.1147 17.2638 14.0317C17.6841 13.9486 18.0694 13.748 18.3712 13.4549C18.673 13.1618 18.8779 12.7894 18.9599 12.3847C19.0419 11.9799 18.9975 11.5609 18.8322 11.1803C18.6669 10.7998 18.3881 10.4748 18.031 10.2463C17.6739 10.0177 17.2544 9.89585 16.8253 9.89603L16.8263 9.89307ZM13.355 6.34705C13.0984 6.34705 12.8476 6.27391 12.6342 6.13689C12.4208 5.99986 12.2545 5.80511 12.1563 5.57724C12.0581 5.34938 12.0324 5.09865 12.0825 4.85675C12.1325 4.61485 12.2561 4.39265 12.4376 4.21825C12.619 4.04386 12.8502 3.92509 13.1019 3.87697C13.3536 3.82886 13.6145 3.85355 13.8516 3.94794C14.0887 4.04232 14.2913 4.20215 14.4339 4.40722C14.5765 4.6123 14.6525 4.8534 14.6525 5.10003C14.6527 5.26392 14.6192 5.42623 14.5541 5.57769C14.489 5.72916 14.3934 5.86681 14.2729 5.98279C14.1525 6.09877 14.0094 6.1908 13.8519 6.25364C13.6944 6.31648 13.5256 6.34889 13.355 6.34902V6.34705ZM14.6525 18.9098C14.6525 19.1565 14.5765 19.3976 14.4339 19.6026C14.2913 19.8077 14.0887 19.9675 13.8516 20.0619C13.6145 20.1563 13.3536 20.181 13.1019 20.1329C12.8502 20.0848 12.619 19.966 12.4376 19.7916C12.2561 19.6172 12.1325 19.395 12.0825 19.1531C12.0324 18.9112 12.0581 18.6605 12.1563 18.4326C12.2545 18.2047 12.4208 18.01 12.6342 17.873C12.8476 17.7359 13.0984 17.6628 13.355 17.6628C13.6991 17.6631 14.029 17.7945 14.2722 18.0283C14.5155 18.2621 14.6523 18.5792 14.6525 18.9098ZM6.17574 20.1559C5.91908 20.1559 5.66818 20.0827 5.45478 19.9456C5.24139 19.8086 5.07508 19.6137 4.97691 19.3858C4.87873 19.1579 4.8531 18.9071 4.90325 18.6652C4.95339 18.4233 5.07707 18.2011 5.25863 18.0267C5.44019 17.8524 5.67148 17.7337 5.92324 17.6857C6.175 17.6377 6.43591 17.6625 6.67298 17.757C6.91005 17.8516 7.11262 18.0115 7.25507 18.2167C7.39752 18.4219 7.47344 18.6631 7.47324 18.9098C7.47297 19.2404 7.33615 19.5573 7.09285 19.791C6.84955 20.0246 6.51968 20.1559 6.17574 20.1559ZM9.64702 13.2293C9.39036 13.2293 9.13946 13.1561 8.92606 13.0191C8.71267 12.882 8.54636 12.6872 8.44819 12.4593C8.35001 12.2313 8.32438 11.9806 8.37453 11.7386C8.42467 11.4967 8.54835 11.2745 8.72991 11.1001C8.91147 10.9258 9.14276 10.8071 9.39452 10.7591C9.64628 10.7111 9.90719 10.7359 10.1443 10.8305C10.3813 10.925 10.5839 11.085 10.7264 11.2902C10.8688 11.4954 10.9447 11.7366 10.9445 11.9833C10.9443 12.3138 10.8074 12.6307 10.5641 12.8644C10.3208 13.098 9.99096 13.2293 9.64702 13.2293ZM16.8212 13.2293C16.5645 13.2293 16.3136 13.1561 16.1002 13.0191C15.8869 12.882 15.7205 12.6872 15.6224 12.4593C15.5242 12.2313 15.4986 11.9806 15.5487 11.7386C15.5989 11.4967 15.7225 11.2745 15.9041 11.1001C16.0857 10.9258 16.3169 10.8071 16.5687 10.7591C16.8205 10.7111 17.0814 10.7359 17.3184 10.8305C17.5555 10.925 17.7581 11.085 17.9005 11.2902C18.043 11.4954 18.1189 11.7366 18.1187 11.9833C18.1184 12.313 17.9823 12.6291 17.7401 12.8627C17.4979 13.0962 17.1694 13.228 16.8263 13.2293H16.8212Z" fill="black"/>
</svg>
