<svg width="24" height="24" viewBox="0 0 24 24" fill="none" xmlns="http://www.w3.org/2000/svg">
<path d="M12 4C7.6 4 4 7.6 4 12C4 15.3 6 18.1 8.8 19.3C8.8 18.7 8.79999 18.1 8.89999 17.5C9.09999 16.8 9.89999 13.1 9.89999 13.1C9.89999 13.1 9.60001 12.6 9.60001 11.8C9.60001 10.6 10.3 9.7 11.1 9.7C11.8 9.7 12.2 10.2 12.2 10.9C12.2 11.6 11.7 12.7 11.5 13.7C11.3 14.5 11.9 15.2 12.8 15.2C14.3 15.2 15.3 13.3 15.3 10.9C15.3 9.1 14.1 7.8 12 7.8C9.6 7.8 8.10001 9.6 8.10001 11.6C8.10001 12.3 8.30001 12.8 8.60001 13.2C8.70001 13.4 8.8 13.4 8.7 13.6C8.7 13.7 8.6 14.1 8.5 14.2C8.4 14.4 8.30001 14.5 8.10001 14.4C7.00001 13.9 6.5 12.7 6.5 11.3C6.5 9 8.4 6.3 12.2 6.3C15.3 6.3 17.3 8.5 17.3 10.9C17.3 14 15.6 16.4 13 16.4C12.1 16.4 11.3 15.9 11 15.4C11 15.4 10.5 17.2 10.4 17.6C10.2 18.2 9.90001 18.8 9.60001 19.3C10.3 19.5 11.1 19.6 11.9 19.6C16.3 19.6 19.9 16 19.9 11.6C20 7.6 16.4 4 12 4Z" fill="black"/>
</svg>
