<svg width="24" height="24" viewBox="0 0 24 24" fill="none" xmlns="http://www.w3.org/2000/svg">
<path d="M5.09992 10.7083C9.39487 8.83705 12.2589 7.60341 13.6919 7.00738C17.7834 5.30558 18.6335 5.00996 19.1877 5.00009C19.3095 4.99805 19.582 5.02826 19.7586 5.17149C19.9076 5.29243 19.9486 5.45581 19.9683 5.57048C19.9879 5.68514 20.0123 5.94636 19.9929 6.15046C19.7712 8.48009 18.8118 14.1335 18.3237 16.7427C18.1172 17.8468 17.7105 18.217 17.3168 18.2532C16.4613 18.3319 15.8116 17.6878 14.9829 17.1446C13.6862 16.2946 12.9537 15.7654 11.695 14.936C10.2404 13.9774 11.1834 13.4506 12.0124 12.5896C12.2293 12.3643 15.999 8.93546 16.0719 8.62441C16.0811 8.58551 16.0895 8.44051 16.0034 8.36394C15.9172 8.28737 15.7901 8.31355 15.6983 8.33438C15.5683 8.36389 13.4968 9.73307 9.48389 12.4419C8.89591 12.8457 8.36333 13.0424 7.88616 13.0321C7.36012 13.0207 6.34822 12.7346 5.59598 12.4901C4.67333 12.1902 3.94002 12.0316 4.00388 11.5223C4.03714 11.257 4.40248 10.9856 5.09992 10.7083Z" fill="black"/>
</svg>
