<svg width="16" height="12" viewBox="0 0 16 12" fill="none" xmlns="http://www.w3.org/2000/svg">
<path d="M15.6 1.7C15.4 1 14.9 0.5 14.2 0.3C13 1.78814e-07 7.89999 0 7.89999 0C7.89999 0 2.90001 1.78814e-07 1.60001 0.3C0.900006 0.5 0.399997 1 0.199997 1.7C-3.05474e-06 3 0 5.6 0 5.6C0 5.6 3.03984e-06 8.2 0.300003 9.5C0.500003 10.2 0.999997 10.7 1.7 10.9C2.9 11.2 8 11.2 8 11.2C8 11.2 13 11.2 14.3 10.9C15 10.7 15.5 10.2 15.7 9.5C16 8.2 16 5.6 16 5.6C16 5.6 16 3 15.6 1.7ZM6.39999 8V3.2L10.6 5.6L6.39999 8Z" />
</svg>
